<svg width="20" height="20" viewBox="0 0 20 20" fill="none" xmlns="http://www.w3.org/2000/svg">
<path d="M11.4092 2.08932C11.109 1.78905 11.109 1.30223 11.4092 1.00196L12.186 0.225199C12.4862 -0.0750661 12.9731 -0.0750664 13.2733 0.225199L18.7104 5.66225C19.0107 5.96252 19.0107 6.44934 18.7104 6.74961L17.9336 7.52637C17.6334 7.82664 17.1465 7.82664 16.8463 7.52637L11.4092 2.08932Z" fill="#7490FF"/>
<path d="M0.225199 12.1869C-0.075066 12.4872 -0.0750665 12.974 0.225198 13.2742L5.66225 18.7113C5.96252 19.0116 6.44934 19.0116 6.74961 18.7113L7.52637 17.9345C7.82664 17.6343 7.82664 17.1474 7.52637 16.8472L2.08932 11.4101C1.78905 11.1099 1.30223 11.1099 1.00196 11.4101L0.225199 12.1869Z" fill="#7490FF"/>
<path d="M11.3319 2.94358L2.94338 11.3321L7.60367 15.9924L11.0525 12.5436L18.5089 20L20.0002 18.5087L12.5438 11.0523L15.9922 7.60387L11.3319 2.94358Z" fill="#7490FF"/>
</svg>
