<svg width="16" height="16" viewBox="0 0 16 16" fill="none" xmlns="http://www.w3.org/2000/svg">
<g clip-path="url(#clip0_5849_32677)">
<path d="M15.3137 15.3137C14.9232 15.7042 14.29 15.7042 13.8995 15.3137L13.1924 14.6066L12.4853 15.3137C12.0948 15.7042 11.4616 15.7042 11.0711 15.3137C10.7084 14.9511 10.6825 14.3792 10.9934 13.9867L11.0711 13.8995L11.7782 13.1924L11.0711 12.4853L9.65685 13.8995C9.26633 14.29 8.63316 14.29 8.24264 13.8995C7.88001 13.5369 7.85411 12.965 8.16493 12.5725L8.24264 12.4853L9.65685 11.0711L6.12132 7.53553C6.09145 7.50566 6.06387 7.47438 6.03857 7.44188C4.50396 8.35294 2.49136 8.14821 1.17157 6.82843C-0.390524 5.26633 -0.390524 2.73367 1.17157 1.17157C2.73367 -0.390524 5.26633 -0.390524 6.82843 1.17157C8.14821 2.49136 8.35294 4.50396 7.4426 6.03868L7.48978 6.07824L15.3137 13.8995C15.7042 14.29 15.7042 14.9232 15.3137 15.3137ZM5.41421 5.41421C6.19526 4.63316 6.19526 3.36684 5.41421 2.58579C4.63316 1.80474 3.36684 1.80474 2.58579 2.58579C1.80474 3.36684 1.80474 4.63316 2.58579 5.41421C3.36684 6.19526 4.63316 6.19526 5.41421 5.41421Z" fill="#0021A5"/>
</g>
<defs>
<clipPath id="clip0_5849_32677">
<rect width="16" height="16" fill="white"/>
</clipPath>
</defs>
</svg>
