<svg width="16" height="16" viewBox="0 0 16 16" fill="none" xmlns="http://www.w3.org/2000/svg">
<g clip-path="url(#clip0_4711_40488)">
<path d="M7.9982 9.53674e-07C9.36526 9.53674e-07 10.5677 0.865134 11.0159 2.13364C11.1632 2.55033 10.9447 3.00748 10.5281 3.15471C10.1411 3.29142 9.71933 3.11285 9.54316 2.75301L9.50699 2.66682C9.28305 2.03305 8.68168 1.60038 7.9982 1.60038C7.15495 1.60038 6.4641 2.2529 6.40304 3.08056L6.39865 3.19993L6.39862 4.79954L12.5993 4.80031C13.5522 4.80031 14.3322 5.54062 14.3956 6.47747L14.3997 6.60074L14.3997 14.1996C14.3997 15.1525 13.6594 15.9325 12.7226 15.9958L12.5993 16H3.39711C2.44419 16 1.66418 15.2597 1.60083 14.3228L1.59668 14.1996L1.59668 6.60074C1.59668 5.64782 2.33698 4.86781 3.27384 4.80447L3.39711 4.80031L4.79824 4.79954L4.79827 3.19993C4.79827 1.43266 6.23093 9.53674e-07 7.9982 9.53674e-07ZM7.9982 9.20098C7.33592 9.20098 6.79903 9.73787 6.79903 10.4002C6.79903 11.0624 7.33592 11.5993 7.9982 11.5993C8.66049 11.5993 9.19738 11.0624 9.19738 10.4002C9.19738 9.73787 8.66049 9.20098 7.9982 9.20098Z" fill="#31DE91"/>
</g>
<defs>
<clipPath id="clip0_4711_40488">
<rect width="16" height="16" fill="white"/>
</clipPath>
</defs>
</svg>
