<svg width="16" height="16" viewBox="0 0 16 16" fill="none" xmlns="http://www.w3.org/2000/svg">
<g clip-path="url(#clip0_9_444)">
<path d="M13.0025 9.59794C13.9963 9.59794 14.8019 10.4036 14.8019 11.3974V12.1323C14.8019 12.591 14.6585 13.0383 14.3917 13.4116C13.1548 15.1425 11.135 16 8.3983 16C5.66104 16 3.64231 15.1421 2.40837 13.4103C2.14275 13.0376 2 12.5912 2 12.1335V11.3974C2 10.4036 2.80563 9.59794 3.79942 9.59794H13.0025ZM8.3983 0C10.6078 0 12.399 1.79118 12.399 4.00071C12.399 6.21024 10.6078 8.00142 8.3983 8.00142C6.18877 8.00142 4.39759 6.21024 4.39759 4.00071C4.39759 1.79118 6.18877 0 8.3983 0Z" fill="#0021A5"/>
</g>
<defs>
<clipPath id="clip0_9_444">
<rect width="16" height="16" fill="white"/>
</clipPath>
</defs>
</svg>
