<svg width="16" height="16" viewBox="0 0 16 16" fill="none" xmlns="http://www.w3.org/2000/svg">
<g clip-path="url(#clip0)">
<path fill-rule="evenodd" clip-rule="evenodd" d="M2.81463 13.1855C2.19849 12.5694 2.02173 11.6295 2.21495 10.3964C1.20633 9.661 0.666748 8.87144 0.666748 8.00008C0.666748 7.12873 1.20633 6.33916 2.21495 5.6038C2.02173 4.37063 2.19849 3.43077 2.81463 2.81463C3.43077 2.19849 4.37063 2.02173 5.6038 2.21495C6.33916 1.20633 7.12873 0.666748 8.00008 0.666748C8.87144 0.666748 9.661 1.20633 10.3964 2.21495C11.6295 2.02173 12.5694 2.19849 13.1855 2.81463C13.8017 3.43077 13.9784 4.37063 13.7852 5.6038C14.7938 6.33916 15.3334 7.12873 15.3334 8.00008C15.3334 8.87144 14.7938 9.661 13.7852 10.3964C13.9784 11.6295 13.8017 12.5694 13.1855 13.1855C12.5694 13.8017 11.6295 13.9784 10.3964 13.7852C9.661 14.7938 8.87144 15.3334 8.00008 15.3334C7.12873 15.3334 6.33916 14.7938 5.6038 13.7852C4.37063 13.9784 3.43077 13.8017 2.81463 13.1855ZM7.33347 8.39049L10.1954 5.52856L11.1382 6.47137L7.33347 10.2761L4.86206 7.80471L5.80487 6.8619L7.33347 8.39049Z" fill="#536ED9"/>
</g>
<defs>
<clipPath id="clip0">
<rect width="16" height="16" fill="white" transform="translate(16 16) rotate(-180)"/>
</clipPath>
</defs>
</svg>
