<svg width="16" height="16" viewBox="0 0 16 16" fill="none" xmlns="http://www.w3.org/2000/svg">
<g clip-path="url(#clip0)">
<path fill-rule="evenodd" clip-rule="evenodd" d="M8.04545 16C3.68182 14.0561 1.5 12.1167 1.5 10.1818L1.5 2.90909C1.5 2.18182 1.86364 2.18182 2.95455 1.45455C3.07221 1.3761 5.54597 0 8.04545 0C10.2238 0 12.0455 0.727273 13.1364 1.45455C14.2273 2.18182 14.5909 2.18182 14.5909 2.90909C14.6101 3.12096 14.5909 9.09091 14.5909 10.1818C14.5909 12.1212 12.4091 14.0606 8.04545 16ZM7.31815 8.42606L10.4403 5.30396L11.4688 6.33247L7.31815 10.4831L4.62207 7.78702L5.65059 6.7585L7.31815 8.42606Z"/>
</g>
<defs>
<clipPath id="clip0">
<rect width="16" height="16" fill="white"/>
</clipPath>
</defs>
</svg>
