<svg width="16" height="16" viewBox="0 0 16 16" fill="none" xmlns="http://www.w3.org/2000/svg">
<g clip-path="url(#clip0_11475_8527)">
<path fill-rule="evenodd" clip-rule="evenodd" d="M3.59999 0C4.04181 0 4.39998 0.358323 4.39998 0.800338V0.889584C6.00316 1.25352 7.19996 2.68786 7.19996 4.40185V5.09408C7.19996 5.53609 6.84179 5.89441 6.39996 5.89441C5.95813 5.89441 5.59996 5.53609 5.59996 5.09408V4.40185C5.59996 3.58138 5.10633 2.87626 4.39998 2.56751V7.49491L4.96715 7.76319C6.33048 8.40806 7.19996 9.78151 7.19996 11.2902L7.19997 11.5883C7.19997 13.3014 6.00404 14.7364 4.39998 15.1005V15.1997C4.39998 15.6417 4.04181 16 3.59999 16C3.15816 16 2.79999 15.6417 2.79999 15.1997V15.1006C1.19767 14.7369 0 13.3032 0 11.5883V10.912C0 10.47 0.358171 10.1116 0.799997 10.1116C1.24182 10.1116 1.59999 10.47 1.59999 10.912V11.5883C1.59999 12.4091 2.09392 13.114 2.79999 13.4227V8.50867L2.2369 8.24232C0.871072 7.59626 0 6.22029 0 4.70885V4.40185C0 2.68786 1.1968 1.25351 2.79999 0.88958V0.800338C2.79999 0.358323 3.15816 0 3.59999 0ZM1.59999 4.40185C1.59999 3.58138 2.09363 2.87625 2.79999 2.5675V6.7337C2.06332 6.33087 1.59999 5.55589 1.59999 4.70885V4.40185ZM4.39998 13.4226V9.26959C5.13652 9.6706 5.59997 10.4444 5.59997 11.2902L5.59997 11.5883C5.59997 12.4084 5.10663 13.1138 4.39998 13.4226Z" fill="#0021A5"/>
<path d="M10.4 8.00338C10.4 7.73778 10.4117 7.47724 10.4344 7.22278L11.1998 7.22269C11.6416 7.22264 11.9998 6.86428 11.9997 6.42226C11.9997 5.98025 11.6414 5.62197 11.1996 5.62202L10.7382 5.62207C10.932 4.97556 11.2005 4.40023 11.5213 3.92169C12.2015 2.90672 13.0547 2.40101 13.891 2.40101C14.1932 2.40101 14.5191 2.49427 14.745 2.64902C15.1095 2.8988 15.6074 2.80566 15.857 2.44099C16.1067 2.07631 16.0136 1.5782 15.6491 1.32842C15.1228 0.967796 14.4718 0.800338 13.891 0.800338C12.3575 0.800338 11.0652 1.72793 10.1923 3.03028C9.69764 3.7684 9.31776 4.65091 9.08071 5.62226L7.99986 5.62239C7.55804 5.62244 7.19991 5.9808 7.19996 6.42282C7.20001 6.86483 7.55822 7.22311 8.00005 7.22306L8.8291 7.22297C8.80982 7.4798 8.79997 7.74021 8.79997 8.00338C8.79997 8.01059 8.79998 8.0178 8.79999 8.02501L7.99938 8.02567C7.55755 8.02603 7.19968 8.38465 7.20004 8.82666C7.20041 9.26868 7.55887 9.62671 8.0007 9.62634L8.92778 9.62558C9.13162 10.8967 9.57159 12.0503 10.1923 12.9765C11.0652 14.2788 12.3575 15.2064 13.891 15.2064C14.4491 15.2064 15.1196 15.0669 15.6687 14.6696C16.0267 14.4106 16.1071 13.9103 15.8482 13.5521C15.5893 13.1939 15.0892 13.1135 14.7312 13.3725C14.5282 13.5194 14.2159 13.6057 13.891 13.6057C13.0547 13.6057 12.2015 13.1 11.5213 12.0851C11.0796 11.4261 10.7368 10.5835 10.552 9.62424L11.2006 9.62371C11.6424 9.62334 12.0003 9.26472 11.9999 8.82271C11.9996 8.3807 11.6411 8.02267 11.1993 8.02303L10.4 8.02369C10.4 8.01692 10.4 8.01015 10.4 8.00338Z" fill="#0021A5"/>
</g>
<defs>
<clipPath id="clip0_11475_8527">
<rect width="16" height="16" fill="white"/>
</clipPath>
</defs>
</svg>
