<svg width="17" height="16" viewBox="0 0 17 16" fill="none" xmlns="http://www.w3.org/2000/svg">
<g clip-path="url(#clip0_1979_107)">
<path fill-rule="evenodd" clip-rule="evenodd" d="M0.5 8C0.5 12.4183 4.08172 16 8.5 16C12.9183 16 16.5 12.4183 16.5 8C16.5 3.58172 12.9183 0 8.5 0C4.08172 0 0.5 3.58172 0.5 8ZM8.49705 3.91047C8.89884 3.91047 9.22455 4.23608 9.22455 4.63773C9.22455 5.03939 8.89884 5.36499 8.49705 5.36499C8.09527 5.36499 7.76956 5.03939 7.76956 4.63773C7.76956 4.23608 8.09527 3.91047 8.49705 3.91047ZM7.77175 12H9.22675L9.22675 6.90919H7.77175L7.77175 12Z" fill="#7490FF"/>
</g>
<defs>
<clipPath id="clip0_1979_107">
<rect width="16" height="16" fill="white" transform="translate(0.5)"/>
</clipPath>
</defs>
</svg>
