<svg width="16" height="16" viewBox="0 0 16 16" fill="none" xmlns="http://www.w3.org/2000/svg">
<path d="M7.80176 0.000738715C7.72498 0.00571141 7.64954 0.0357854 7.58916 0.089923C7.54734 0.127767 7.0296 0.601432 6.52617 1.36485C6.42266 1.17268 6.22 1.03784 5.9875 1.03784H4.4125C4.07823 1.03784 3.8 1.31283 3.8 1.64322V3.19989C3.8 3.53027 4.07823 3.80526 4.4125 3.80526H5.5835C5.56337 3.97507 5.55 4.14734 5.55 4.32415C5.55 5.7549 6.7274 6.9186 8.175 6.9186C9.6226 6.9186 10.8 5.7549 10.8 4.32415C10.8 2.8934 9.6226 1.7297 8.175 1.7297C8.0427 1.7297 8.01463 1.68856 8.00273 1.67092C7.86518 1.47097 7.99991 0.847287 8.14971 0.473686C8.20991 0.324245 8.15798 0.153217 8.02393 0.0615462C7.95673 0.0158838 7.87854 -0.00423398 7.80176 0.000738715ZM4.5 1.7297H5.9V2.56614C5.83114 2.74221 5.76958 2.92403 5.71816 3.1134H4.5V1.7297ZM5.07627 5.50652C2.47647 6.71207 1 9.44456 1 13.1453V14.1831L1.60361 13.3878C1.73203 13.842 1.90143 14.2786 2.11631 14.6884C2.13749 14.7288 2.16651 14.7646 2.2017 14.7938C2.23688 14.8231 2.27755 14.8452 2.32139 14.8589C2.36522 14.8726 2.41135 14.8776 2.45715 14.8737C2.50296 14.8698 2.54753 14.857 2.58833 14.8361C2.62913 14.8151 2.66536 14.7865 2.69495 14.7517C2.72453 14.7169 2.7469 14.6767 2.76077 14.6334C2.77464 14.5901 2.77974 14.5445 2.77578 14.4992C2.77182 14.4539 2.75888 14.4099 2.7377 14.3695C2.46475 13.8489 2.26885 13.2857 2.15732 12.6933C2.68552 12.0638 3.26536 11.458 3.82324 10.9488C3.63844 11.4365 3.51433 11.9248 3.45273 12.4109L3.34268 13.2804L4.02422 12.719C4.04382 12.7027 6.05295 11.0697 8.35 11.0697C9.47665 11.0697 10.0927 11.173 10.6359 11.2643C11.1014 11.3421 11.5413 11.4157 12.2 11.4157C13.285 11.4157 13.879 10.8676 14.138 10.2103C14.2069 10.5023 14.2553 10.8008 14.2802 11.1049C14.2928 11.265 14.3 11.426 14.3 11.5886C14.3 12.5634 14.068 13.4985 13.6109 14.3695C13.522 14.539 13.5891 14.7485 13.7606 14.8364C13.8121 14.8627 13.8677 14.8749 13.922 14.8749C14.0483 14.8749 14.1707 14.8074 14.233 14.6884C14.7423 13.7185 15 12.6755 15 11.5886C15 11.4077 14.9925 11.2276 14.9781 11.0495C14.8094 8.91924 13.6446 7.03984 11.8712 5.9173C11.8568 5.90831 11.8425 5.8986 11.8281 5.8896C11.7105 5.81661 11.5897 5.74792 11.4672 5.68151C11.4241 5.65798 11.3817 5.63373 11.338 5.61124C11.3093 5.59637 11.2795 5.58353 11.2505 5.56935C11.03 6.09897 10.6735 6.55943 10.2244 6.90847L11.3975 8.06786C11.5343 8.20312 11.5343 8.42177 11.3975 8.55702C11.3292 8.62448 11.2396 8.65837 11.15 8.65837C11.0604 8.65837 10.9708 8.62448 10.9025 8.55702L10.6093 8.26785L9.97695 8.89282C9.9087 8.95993 9.81909 8.99416 9.72949 8.99416C9.63989 8.99416 9.55028 8.96027 9.48203 8.89282C9.34518 8.75756 9.34518 8.53891 9.48203 8.40365L10.115 7.77801L9.75 7.4179L9.29746 7.86517C9.22921 7.93263 9.1396 7.96652 9.05 7.96652C8.9604 7.96652 8.87079 7.93263 8.80254 7.86517C8.71994 7.78353 8.69345 7.67205 8.71025 7.56654C8.53595 7.59456 8.35735 7.61045 8.175 7.61045C6.76345 7.61045 5.55787 6.73559 5.07627 5.50652ZM6.425 12.7994C6.28576 12.7994 6.15223 12.854 6.05377 12.9513C5.95531 13.0486 5.9 13.1806 5.9 13.3182C5.9 13.4559 5.95531 13.5878 6.05377 13.6852C6.15223 13.7825 6.28576 13.8371 6.425 13.8371C6.56424 13.8371 6.69777 13.7825 6.79623 13.6852C6.89469 13.5878 6.95 13.4559 6.95 13.3182C6.95 13.1806 6.89469 13.0486 6.79623 12.9513C6.69777 12.854 6.56424 12.7994 6.425 12.7994ZM10.275 12.7994C10.1358 12.7994 10.0022 12.854 9.90377 12.9513C9.80531 13.0486 9.75 13.1806 9.75 13.3182C9.75 13.4559 9.80531 13.5878 9.90377 13.6852C10.0022 13.7825 10.1358 13.8371 10.275 13.8371C10.4142 13.8371 10.5478 13.7825 10.6462 13.6852C10.7447 13.5878 10.8 13.4559 10.8 13.3182C10.8 13.1806 10.7447 13.0486 10.6462 12.9513C10.5478 12.854 10.4142 12.7994 10.275 12.7994Z" />
</svg>
