<svg width="16" height="16" viewBox="0 0 16 16" fill="none" xmlns="http://www.w3.org/2000/svg">
<path d="M2.69807 6.67452C3.06409 6.30849 3.65753 6.30849 4.02355 6.67452C4.36343 7.01439 4.3877 7.55036 4.09638 7.91825L4.02355 8L2.69807 9.32548C1.6 10.4235 1.6 12.2039 2.69807 13.3019C3.75692 14.3608 5.45015 14.3986 6.55432 13.4154L6.67452 13.3019L8 11.9764C8.36602 11.6104 8.95946 11.6104 9.32548 11.9764C9.66536 12.3163 9.68964 12.8523 9.39831 13.2202L9.32548 13.3019L8 14.6274C6.16989 16.4575 3.20269 16.4575 1.37258 14.6274C-0.409367 12.8455 -0.45626 9.98549 1.2319 8.1468L1.37258 8L2.69807 6.67452ZM8 1.37258C9.83011 -0.457528 12.7973 -0.457528 14.6274 1.37258C16.4094 3.15453 16.4563 6.01451 14.7681 7.8532L14.6274 8L13.3019 9.32548C12.9359 9.6915 12.3425 9.6915 11.9764 9.32548C11.6366 8.98561 11.6123 8.44964 11.9036 8.08175L11.9764 8L13.3019 6.67452C14.4 5.57645 14.4 3.79613 13.3019 2.69807C12.2431 1.63922 10.5498 1.6014 9.44568 2.58462L9.32548 2.69807L8 4.02355C7.63398 4.38957 7.04054 4.38957 6.67452 4.02355C6.33464 3.68367 6.31036 3.1477 6.60169 2.77981L6.67452 2.69807L8 1.37258ZM4.02355 10.651L10.651 4.02355C11.017 3.65753 11.6104 3.65753 11.9764 4.02355C12.3163 4.36343 12.3406 4.89939 12.0493 5.26728L11.9764 5.34903L5.34903 11.9764C4.98301 12.3425 4.38957 12.3425 4.02355 11.9764C3.68367 11.6366 3.6594 11.1006 3.95072 10.7327L4.02355 10.651Z" fill="#E6332A"/>
</svg>
