<svg width="14" height="16" viewBox="0 0 14 16" fill="none" xmlns="http://www.w3.org/2000/svg">
<path d="M6.99961 0C8.76692 0 10.1996 1.43269 10.1996 3.2V4.8H12.1996C12.8624 4.8 13.3996 5.33726 13.3996 6V14.8C13.3996 15.4627 12.8624 16 12.1996 16H1.79961C1.13687 16 0.599609 15.4627 0.599609 14.8V6C0.599609 5.33726 1.13687 4.8 1.79961 4.8H3.79961V3.2C3.79961 1.43269 5.2323 0 6.99961 0ZM6.99971 9.2C6.33697 9.2 5.79971 9.73726 5.79971 10.4C5.79971 11.0627 6.33697 11.6 6.99971 11.6C7.66245 11.6 8.19971 11.0627 8.19971 10.4C8.19971 9.73726 7.66245 9.2 6.99971 9.2ZM6.99961 1.6C6.11595 1.6 5.39961 2.31634 5.39961 3.2V4.8H8.59961V3.2C8.59961 2.31634 7.88327 1.6 6.99961 1.6Z" fill="#84858C"/>
</svg>
