<svg width="48" height="48" viewBox="0 0 48 48" fill="none" xmlns="http://www.w3.org/2000/svg">
<path d="M31.9651 38.7576V33.3695C31.9651 31.1413 31.0701 29.0956 29.6203 27.6344C28.4568 26.4472 26.9354 25.6071 25.2349 25.3331V27.0521C25.2349 27.7462 24.6801 28.294 23.9997 28.294C23.3194 28.294 22.7826 27.746 22.7826 27.0521V25.3333C21.0821 25.6073 19.5429 26.4475 18.3794 27.6347C16.9296 29.0959 16.0346 31.1416 16.0346 33.3698V38.6482C22.6577 36.0729 25.3423 35.6159 31.9651 38.7576ZM10.2171 6.50226C9.55484 6.50226 9 5.93614 9 5.24192C9 4.56614 9.55482 4 10.2171 4H37.7829C38.4632 4 39 4.56612 39 5.24192C39 5.93611 38.463 6.50226 37.7829 6.50226H34.4177V14.63C34.4177 17.5524 33.2364 20.2008 31.3567 22.1185C30.6228 22.8674 29.7995 23.5066 28.8864 23.9999C29.7995 24.4929 30.6228 25.1324 31.3567 25.8629C33.2361 27.7806 34.4177 30.4474 34.4177 33.37V41.4977H37.7829C38.4632 41.4977 39 42.0457 39 42.7397C39 43.4338 38.463 44 37.7829 44H10.2171C9.55484 44 9 43.4339 9 42.7397C9 42.0454 9.55482 41.4977 10.2171 41.4977H13.6001V33.37C13.6001 30.4476 14.7636 27.781 16.643 25.8629C17.3769 25.1324 18.2003 24.4929 19.1133 23.9999C18.2003 23.4885 17.3769 22.8674 16.643 22.1185C14.7636 20.2008 13.6001 17.5524 13.6001 14.63V6.50226H10.2171ZM31.9651 6.50226H16.0342V10.9771H31.9651V6.50226Z" fill="url(#paint0_linear_9782_4526)" fill-opacity="0.4"/>
<path d="M25.25 30.25C25.25 30.9404 24.6904 31.5 24 31.5C23.3096 31.5 22.75 30.9404 22.75 30.25C22.75 29.5596 23.3096 29 24 29C24.6904 29 25.25 29.5596 25.25 30.25Z" fill="url(#paint1_linear_9782_4526)" fill-opacity="0.4"/>
<path d="M25.25 30.25C25.25 30.9404 24.6904 31.5 24 31.5C23.3096 31.5 22.75 30.9404 22.75 30.25C22.75 29.5596 23.3096 29 24 29C24.6904 29 25.25 29.5596 25.25 30.25Z" fill="url(#paint2_linear_9782_4526)" fill-opacity="0.4"/>
<defs>
<linearGradient id="paint0_linear_9782_4526" x1="27.5" y1="44" x2="19" y2="4" gradientUnits="userSpaceOnUse">
<stop stop-color="#8D92A6"/>
<stop offset="1" stop-color="#D1D3DA"/>
</linearGradient>
<linearGradient id="paint1_linear_9782_4526" x1="27.5" y1="44" x2="19" y2="4" gradientUnits="userSpaceOnUse">
<stop stop-color="#8D92A6"/>
<stop offset="1" stop-color="#D1D3DA"/>
</linearGradient>
<linearGradient id="paint2_linear_9782_4526" x1="27.5" y1="44" x2="19" y2="4" gradientUnits="userSpaceOnUse">
<stop stop-color="#8D92A6"/>
<stop offset="1" stop-color="#D1D3DA"/>
</linearGradient>
</defs>
</svg>
