<svg width="16" height="16" viewBox="0 0 16 16" fill="none" xmlns="http://www.w3.org/2000/svg">
<mask id="path-1-inside-1" fill="white">
<path fill-rule="evenodd" clip-rule="evenodd" d="M8.04545 16C3.68182 14.0561 1.5 12.1167 1.5 10.1818V2.90909C1.5 2.18182 1.86364 2.18182 2.95455 1.45455C3.07221 1.3761 5.54597 0 8.04545 0C10.2238 0 12.0455 0.727273 13.1364 1.45455C14.2273 2.18182 14.5909 2.18182 14.5909 2.90909C14.6101 3.12096 14.5909 9.09091 14.5909 10.1818C14.5909 12.1212 12.4091 14.0606 8.04545 16Z"/>
</mask>
<path d="M8.04545 16L7.39436 17.4615L8.04469 17.7512L8.69528 17.4621L8.04545 16ZM2.95455 1.45455L3.84207 2.78583L2.95455 1.45455ZM14.5909 2.90909H12.9909V2.98153L12.9975 3.05367L14.5909 2.90909ZM14.5909 10.1818H12.9909H14.5909ZM8.69655 14.5385C6.58223 13.5966 5.11437 12.705 4.19935 11.8916C3.27547 11.0704 3.1 10.5016 3.1 10.1818H-0.1C-0.1 11.7969 0.815443 13.1652 2.07338 14.2834C3.34018 15.4094 5.14505 16.4595 7.39436 17.4615L8.69655 14.5385ZM3.1 10.1818V2.90909H-0.1V10.1818H3.1ZM3.1 2.90909C3.1 2.85035 3.10935 2.96404 3.03294 3.13386C2.94838 3.32177 2.83149 3.42018 2.81769 3.43121C2.81663 3.43206 2.83318 3.41892 2.88465 3.38558C2.93655 3.35197 3.00118 3.31234 3.09633 3.25468C3.27933 3.14377 3.53597 2.98989 3.84207 2.78583L2.06703 0.123265C1.82767 0.282838 1.62976 0.401683 1.43776 0.518047C1.27249 0.618213 1.02919 0.764014 0.81867 0.932428C0.577606 1.12528 0.301621 1.40551 0.114789 1.82069C-0.0638995 2.21778 -0.1 2.60419 -0.1 2.90909H3.1ZM3.84207 2.78583C3.76643 2.83625 4.29376 2.52335 5.16756 2.19638C6.02381 1.87598 7.06419 1.6 8.04545 1.6L8.04545 -1.6C6.52723 -1.6 5.08099 -1.18793 4.04608 -0.800668C3.02871 -0.419974 2.26033 -0.0056029 2.06703 0.123265L3.84207 2.78583ZM8.04545 1.6C9.88229 1.6 11.3986 2.21898 12.2488 2.78583L14.0239 0.123265C12.6923 -0.764437 10.5653 -1.6 8.04545 -1.6L8.04545 1.6ZM12.2488 2.78583C12.5549 2.98989 12.8116 3.14377 12.9946 3.25468C13.0897 3.31234 13.1544 3.35197 13.2063 3.38558C13.2577 3.41892 13.2743 3.43206 13.2732 3.43121C13.2594 3.42018 13.1425 3.32177 13.058 3.13386C12.9816 2.96404 12.9909 2.85035 12.9909 2.90909H16.1909C16.1909 2.60419 16.1548 2.21778 15.9761 1.82069C15.7893 1.40551 15.5133 1.12528 15.2722 0.932428C15.0617 0.764014 14.8184 0.618213 14.6531 0.518047C14.4611 0.401683 14.2632 0.282838 14.0239 0.123265L12.2488 2.78583ZM12.9975 3.05367C12.992 2.99374 12.9948 3.01208 12.9965 3.249C12.9978 3.43011 12.9986 3.68141 12.999 3.9838C12.9999 4.58786 12.9993 5.38611 12.9981 6.21349C12.9957 7.86392 12.9909 9.63543 12.9909 10.1818H16.1909C16.1909 9.6373 16.1957 7.87838 16.1981 6.21814C16.1993 5.39018 16.1999 4.58804 16.199 3.97905C16.1986 3.67492 16.1977 3.41653 16.1964 3.22635C16.1954 3.09198 16.1946 2.87741 16.1844 2.76451L12.9975 3.05367ZM12.9909 10.1818C12.9909 10.5048 12.8144 11.0748 11.8916 11.8951C10.977 12.708 9.50968 13.5983 7.39563 14.5379L8.69528 17.4621C10.9449 16.4623 12.7503 15.4132 14.0175 14.2868C15.2765 13.1677 16.1909 11.7982 16.1909 10.1818H12.9909Z" mask="url(#path-1-inside-1)"/>
<path fill-rule="evenodd" clip-rule="evenodd" d="M7.31815 8.42606L10.4403 5.30396L11.4688 6.33247L7.31815 10.4831L4.62207 7.78702L5.65059 6.7585L7.31815 8.42606Z"/>
</svg>
