<svg width="16" height="16" viewBox="0 0 16 16" fill="none" xmlns="http://www.w3.org/2000/svg">
<g clip-path="url(#clip0)">
<path fill-rule="evenodd" clip-rule="evenodd" d="M0.353553 9.54586C0.158291 9.74112 0.158291 10.0577 0.353554 10.253L4.59619 14.4956C4.79146 14.6909 5.10804 14.6909 5.3033 14.4956L6.01041 13.7885C6.20567 13.5932 6.20567 13.2767 6.01041 13.0814L1.76777 8.83875C1.5725 8.64349 1.25592 8.64349 1.06066 8.83875L0.353553 9.54586ZM8.83883 2.47479L2.47487 8.83875L6.01041 12.3743L8.62656 9.75813L14.2834 15.415L15.4148 14.2836L9.75794 8.62676L12.3744 6.01033L8.83883 2.47479ZM8.83883 1.76769C8.64357 1.57242 8.64357 1.25584 8.83883 1.06058L9.54594 0.353473C9.7412 0.158211 10.0578 0.158211 10.253 0.353473L14.4957 4.59611C14.691 4.79138 14.691 5.10796 14.4957 5.30322L13.7886 6.01033C13.5933 6.20559 13.2767 6.20559 13.0815 6.01033L8.83883 1.76769Z"/>
</g>
<defs>
<clipPath id="clip0">
<rect width="16" height="16" fill="white"/>
</clipPath>
</defs>
</svg>
