<svg width="16" height="16" viewBox="0 0 16 16" fill="none" xmlns="http://www.w3.org/2000/svg">
<g clip-path="url(#clip0)">
<path fill-rule="evenodd" clip-rule="evenodd" d="M0.454139 9.64645C0.258877 9.84171 0.258877 10.1583 0.454139 10.3536L4.69678 14.5962C4.89204 14.7915 5.20862 14.7915 5.40389 14.5962L6.11099 13.8891C6.30626 13.6938 6.30626 13.3772 6.11099 13.182L1.86835 8.93934C1.67309 8.74408 1.35651 8.74408 1.16125 8.93934L0.454139 9.64645ZM8.93942 2.57538L2.57546 8.93934L6.11099 12.4749L8.72715 9.85872L14.384 15.5156L15.5154 14.3842L9.85852 8.72735L12.475 6.11091L8.93942 2.57538ZM8.93942 1.86827C8.74416 1.67301 8.74416 1.35643 8.93942 1.16117L9.64653 0.454059C9.84179 0.258797 10.1584 0.258796 10.3536 0.454059L14.5963 4.6967C14.7915 4.89196 14.7915 5.20854 14.5963 5.40381L13.8892 6.11091C13.6939 6.30617 13.3773 6.30617 13.1821 6.11091L8.93942 1.86827Z"/>
</g>
<defs>
<clipPath id="clip0">
<rect width="16" height="16" fill="white"/>
</clipPath>
</defs>
</svg>
