<svg xmlns="http://www.w3.org/2000/svg" width="16" height="16" viewBox="0 0 16 16" fill="none">
  <path fill-rule="evenodd" clip-rule="evenodd" d="M10.4996 1.43824L15.5943 10.1476C16.1245 11.0438 16.1359 12.1548 15.6243 13.0618C15.112 13.9698 14.1546 14.5337 13.1003 14.544L2.89116 14.5439C1.84773 14.5354 0.888457 13.9698 0.37614 13.061C-0.135752 12.1529 -0.123797 11.0394 0.404683 10.1508L5.50126 1.43828C6.0191 0.546865 6.97275 -0.00120619 8.00383 5.89964e-07C9.03481 0.00120724 9.98812 0.55155 10.4996 1.43824ZM8.73051 4.36255L7.27551 4.36255L7.27551 9.45336L8.73051 9.45336L8.73051 4.36255ZM8.72831 10.9077C8.72831 11.3093 8.4026 11.6349 8.00081 11.6349C7.59903 11.6349 7.27332 11.3093 7.27332 10.9077C7.27332 10.506 7.59903 10.1804 8.00081 10.1804C8.4026 10.1804 8.72831 10.506 8.72831 10.9077Z" fill="#F1BF0B"/>
</svg>
