<svg width="16" height="16" viewBox="0 0 16 16" fill="none" xmlns="http://www.w3.org/2000/svg">
<g clip-path="url(#clip0_2878_561)">
<path d="M5.52545 11.6008H10.4794C9.98334 14.2183 8.99007 16 8.00241 16C7.04467 16 6.08167 14.3246 5.5719 11.8364L5.52545 11.6008H10.4794H5.52545ZM0.854008 11.6009L4.29902 11.6007C4.59088 13.2668 5.08558 14.6842 5.73298 15.6761C3.68241 15.0705 1.97524 13.6665 0.971106 11.8241L0.854008 11.6009ZM11.7058 11.6007L15.1508 11.6009C14.1656 13.5529 12.4044 15.0463 10.2726 15.6758C10.8764 14.7496 11.3474 13.4534 11.6448 11.9305L11.7058 11.6007L15.1508 11.6009L11.7058 11.6007ZM11.9482 6.40002L15.8447 6.39953C15.9497 6.91666 16.0048 7.4519 16.0048 8C16.0048 8.83638 15.8765 9.64279 15.6385 10.4007H11.8758C11.9601 9.63447 12.0042 8.82948 12.0042 8C12.0042 7.63649 11.9958 7.27768 11.9791 6.92479L11.9482 6.40002L15.8447 6.39953L11.9482 6.40002ZM0.160074 6.39953L4.05666 6.40002C4.01966 6.92005 4.00058 7.45473 4.00058 8C4.00058 8.66359 4.02884 9.3115 4.08327 9.93641L4.12897 10.4007H0.366322C0.128311 9.64279 0 8.83638 0 8C0 7.4519 0.0551039 6.91666 0.160074 6.39953ZM5.2624 6.39956H10.7424C10.7826 6.91615 10.8041 7.4513 10.8041 8C10.8041 8.67021 10.7721 9.32022 10.713 9.94087L10.6636 10.4007H5.34118C5.25073 9.64396 5.20076 8.83777 5.20076 8C5.20076 7.58848 5.21282 7.18457 5.23581 6.79041L5.2624 6.39956H10.7424H5.2624ZM10.3582 0.460157L10.2718 0.323955C12.6868 1.03684 14.6263 2.85839 15.501 5.19933L11.8278 5.19956C11.5753 3.26574 11.0625 1.60495 10.3582 0.460157L10.2718 0.323955L10.3582 0.460157ZM5.63548 0.353412L5.73292 0.323985C5.02821 1.40375 4.50445 2.98767 4.22628 4.84764L4.17702 5.19956L0.503775 5.19933C1.36667 2.88998 3.26583 1.08609 5.63548 0.353412L5.73292 0.323985L5.63548 0.353412ZM8.00241 0C9.0576 0 10.1192 2.0337 10.574 4.94748L10.6114 5.19936H5.39337C5.82496 2.15157 6.91707 0 8.00241 0Z" fill="white"/>
</g>
<defs>
<clipPath id="clip0_2878_561">
<rect width="16" height="16" fill="white"/>
</clipPath>
</defs>
</svg>
