<svg width="16" height="16" viewBox="0 0 16 16" fill="none" xmlns="http://www.w3.org/2000/svg">
<g clip-path="url(#clip0)">
<path d="M5.91304 1C2.65217 1 0 3.26223 0 6.04348C0 7.52853 0.716033 8.86413 2.0231 9.83152L1.10598 12.5842L3.97418 10.8084C4.77038 11.0584 5.74185 11.1467 6.67935 11.0435C7.44022 12.5163 9.15897 13.5217 11.1304 13.5217C11.7296 13.5217 12.284 13.409 12.7989 13.2554L15.1807 14.5883L14.5163 12.3098C15.413 11.5652 16 10.5285 16 9.34783C16 7.1875 14.1209 5.46467 11.7391 5.2106C11.2717 2.79212 8.82337 1 5.91304 1ZM3.82609 3.78261C4.20924 3.78261 4.52174 4.09511 4.52174 4.47826C4.52174 4.86141 4.20924 5.17391 3.82609 5.17391C3.44293 5.17391 3.13043 4.86141 3.13043 4.47826C3.13043 4.09511 3.44293 3.78261 3.82609 3.78261ZM8 3.78261C8.38315 3.78261 8.69565 4.09511 8.69565 4.47826C8.69565 4.86141 8.38315 5.17391 8 5.17391C7.61685 5.17391 7.30435 4.86141 7.30435 4.47826C7.30435 4.09511 7.61685 3.78261 8 3.78261ZM11.1304 5.86957C13.4769 5.86957 15.3043 7.44701 15.3043 9.34783C15.3043 10.3764 14.7799 11.2785 13.9144 11.9198L13.7201 12.0652L14.0367 13.1508L12.9062 12.5163L12.7595 12.5652C12.2731 12.7283 11.7174 12.8261 11.1304 12.8261C8.78397 12.8261 6.95652 11.2486 6.95652 9.34783C6.95652 7.44701 8.78397 5.86957 11.1304 5.86957ZM9.56522 7.95652C9.28668 7.95652 9.04348 8.19973 9.04348 8.47826C9.04348 8.75679 9.28668 9 9.56522 9C9.84375 9 10.087 8.75679 10.087 8.47826C10.087 8.19973 9.84375 7.95652 9.56522 7.95652ZM12.6957 7.95652C12.4171 7.95652 12.1739 8.19973 12.1739 8.47826C12.1739 8.75679 12.4171 9 12.6957 9C12.9742 9 13.2174 8.75679 13.2174 8.47826C13.2174 8.19973 12.9742 7.95652 12.6957 7.95652Z" />
</g>
<defs>
<clipPath id="clip0">
<rect width="16" height="16" fill="white"/>
</clipPath>
</defs>
</svg>
