<svg width="22" height="16" viewBox="0 0 22 16" fill="none" xmlns="http://www.w3.org/2000/svg">
<g filter="url(#filter0_d_5985_49731)">
<g clip-path="url(#clip0_5985_49731)">
<mask id="mask0_5985_49731" style="mask-type:alpha" maskUnits="userSpaceOnUse" x="1" y="0" width="20" height="15">
<rect x="1" width="20" height="15" fill="white"/>
</mask>
<g mask="url(#mask0_5985_49731)">
<path fill-rule="evenodd" clip-rule="evenodd" d="M1 0V15H21V0H1Z" fill="#FFB400"/>
<mask id="mask1_5985_49731" style="mask-type:alpha" maskUnits="userSpaceOnUse" x="1" y="0" width="20" height="15">
<path fill-rule="evenodd" clip-rule="evenodd" d="M1 0V15H21V0H1Z" fill="white"/>
</mask>
<g mask="url(#mask1_5985_49731)">
<path fill-rule="evenodd" clip-rule="evenodd" d="M1 0V3.75H21V0H1Z" fill="#C51918"/>
<path fill-rule="evenodd" clip-rule="evenodd" d="M1 11.25V15H21V11.25H1Z" fill="#C51918"/>
<rect x="4.12891" y="6.41992" width="0.7" height="3.64" fill="#F1F9FF"/>
<path fill-rule="evenodd" clip-rule="evenodd" d="M5.10961 5.79004H3.84961V6.14004H4.05961V6.42004H4.89961V6.14004H5.10961V5.79004Z" fill="#C88A02"/>
<path fill-rule="evenodd" clip-rule="evenodd" d="M4.89961 10.2697H5.10961V10.6197H3.84961V10.2697H4.05961V9.98975H4.89961V10.2697Z" fill="#C88A02"/>
<path fill-rule="evenodd" clip-rule="evenodd" d="M4.48023 5.85984C4.63257 5.85984 4.64805 5.80248 4.73792 5.71681C4.80771 5.65029 4.97023 5.56778 4.97023 5.47484C4.97023 5.26221 4.75085 5.08984 4.48023 5.08984C4.20961 5.08984 3.99023 5.26221 3.99023 5.47484C3.99023 5.57839 4.10216 5.64762 4.18679 5.71681C4.27595 5.78971 4.3414 5.85984 4.48023 5.85984Z" fill="#AD1619"/>
<path fill-rule="evenodd" clip-rule="evenodd" d="M3.84961 10.6196H5.10961V11.1796C5.10961 11.1796 4.95211 11.1096 4.79461 11.1096C4.63711 11.1096 4.47961 11.1796 4.47961 11.1796C4.47961 11.1796 4.32211 11.1096 4.16461 11.1096C4.00711 11.1096 3.84961 11.1796 3.84961 11.1796V10.6196Z" fill="#005BBF"/>
<mask id="mask2_5985_49731" style="mask-type:alpha" maskUnits="userSpaceOnUse" x="3" y="10" width="3" height="2">
<path fill-rule="evenodd" clip-rule="evenodd" d="M3.84961 10.6196H5.10961V11.1796C5.10961 11.1796 4.95211 11.1096 4.79461 11.1096C4.63711 11.1096 4.47961 11.1796 4.47961 11.1796C4.47961 11.1796 4.32211 11.1096 4.16461 11.1096C4.00711 11.1096 3.84961 11.1796 3.84961 11.1796V10.6196Z" fill="white"/>
</mask>
<g mask="url(#mask2_5985_49731)">
<path d="M3.83805 11.0697L3.81055 11.0026C3.92403 10.9521 4.03792 10.9268 4.15199 10.9268C4.22568 10.9268 4.26416 10.937 4.32958 10.9661C4.38705 10.9917 4.41683 10.9997 4.47968 10.9997C4.54252 10.9997 4.57231 10.9917 4.62977 10.9661C4.69519 10.937 4.73367 10.9268 4.80737 10.9268C4.92143 10.9268 5.03532 10.9521 5.14881 11.0026L5.1213 11.0697C5.01633 11.0229 4.91176 10.9997 4.80737 10.9997C4.74452 10.9997 4.71473 11.0076 4.65727 11.0332C4.59185 11.0623 4.55337 11.0726 4.47968 11.0726C4.40598 11.0726 4.3675 11.0623 4.30208 11.0332C4.24462 11.0076 4.21483 10.9997 4.15199 10.9997C4.04759 10.9997 3.94302 11.0229 3.83805 11.0697Z" fill="white"/>
<path d="M3.83805 10.8597L3.81055 10.7926C3.92403 10.7421 4.03792 10.7168 4.15199 10.7168C4.22568 10.7168 4.26416 10.7271 4.32958 10.7562C4.38705 10.7818 4.41683 10.7897 4.47968 10.7897C4.54252 10.7897 4.57231 10.7818 4.62977 10.7562C4.69519 10.7271 4.73367 10.7168 4.80737 10.7168C4.92143 10.7168 5.03532 10.7421 5.14881 10.7926L5.1213 10.8597C5.01633 10.813 4.91176 10.7897 4.80737 10.7897C4.74452 10.7897 4.71473 10.7977 4.65727 10.8232C4.59185 10.8524 4.55337 10.8626 4.47968 10.8626C4.40598 10.8626 4.3675 10.8524 4.30208 10.8232C4.24462 10.7977 4.21483 10.7897 4.15199 10.7897C4.04759 10.7897 3.94302 10.813 3.83805 10.8597Z" fill="white"/>
</g>
<rect x="10.9902" y="6.41992" width="0.7" height="3.64" fill="#F1F9FF"/>
<path fill-rule="evenodd" clip-rule="evenodd" d="M11.969 5.79004H10.709V6.14004H10.919V6.42004H11.759V6.14004H11.969V5.79004Z" fill="#C88A02"/>
<path fill-rule="evenodd" clip-rule="evenodd" d="M11.759 10.2697H11.969V10.6197H10.709V10.2697H10.919V9.98975H11.759V10.2697Z" fill="#C88A02"/>
<path fill-rule="evenodd" clip-rule="evenodd" d="M11.3396 5.85984C11.4919 5.85984 11.5074 5.80248 11.5973 5.71681C11.6671 5.65029 11.8296 5.56778 11.8296 5.47484C11.8296 5.26221 11.6102 5.08984 11.3396 5.08984C11.069 5.08984 10.8496 5.26221 10.8496 5.47484C10.8496 5.57839 10.9615 5.64762 11.0462 5.71681C11.1353 5.78971 11.2008 5.85984 11.3396 5.85984Z" fill="#AD1619"/>
<path fill-rule="evenodd" clip-rule="evenodd" d="M10.709 10.6196H11.969V11.1796C11.969 11.1796 11.8115 11.1096 11.654 11.1096C11.4965 11.1096 11.339 11.1796 11.339 11.1796C11.339 11.1796 11.1815 11.1096 11.024 11.1096C10.8665 11.1096 10.709 11.1796 10.709 11.1796V10.6196Z" fill="#005BBF"/>
<mask id="mask3_5985_49731" style="mask-type:alpha" maskUnits="userSpaceOnUse" x="10" y="10" width="2" height="2">
<path fill-rule="evenodd" clip-rule="evenodd" d="M10.709 10.6196H11.969V11.1796C11.969 11.1796 11.8115 11.1096 11.654 11.1096C11.4965 11.1096 11.339 11.1796 11.339 11.1796C11.339 11.1796 11.1815 11.1096 11.024 11.1096C10.8665 11.1096 10.709 11.1796 10.709 11.1796V10.6196Z" fill="white"/>
</mask>
<g mask="url(#mask3_5985_49731)">
<path d="M10.6974 11.0697L10.6699 11.0026C10.7834 10.9521 10.8973 10.9268 11.0114 10.9268C11.0851 10.9268 11.1235 10.937 11.189 10.9661C11.2464 10.9917 11.2762 10.9997 11.3391 10.9997C11.4019 10.9997 11.4317 10.9917 11.4891 10.9661C11.5546 10.937 11.593 10.9268 11.6667 10.9268C11.7808 10.9268 11.8947 10.9521 12.0082 11.0026L11.9807 11.0697C11.8757 11.0229 11.7711 10.9997 11.6667 10.9997C11.6039 10.9997 11.5741 11.0076 11.5166 11.0332C11.4512 11.0623 11.4127 11.0726 11.3391 11.0726C11.2654 11.0726 11.2269 11.0623 11.1615 11.0332C11.104 11.0076 11.0742 10.9997 11.0114 10.9997C10.907 10.9997 10.8024 11.0229 10.6974 11.0697Z" fill="white"/>
<path d="M10.6974 10.8597L10.6699 10.7926C10.7834 10.7421 10.8973 10.7168 11.0114 10.7168C11.0851 10.7168 11.1235 10.7271 11.189 10.7562C11.2464 10.7818 11.2762 10.7897 11.3391 10.7897C11.4019 10.7897 11.4317 10.7818 11.4891 10.7562C11.5546 10.7271 11.593 10.7168 11.6667 10.7168C11.7808 10.7168 11.8947 10.7421 12.0082 10.7926L11.9807 10.8597C11.8757 10.813 11.7711 10.7897 11.6667 10.7897C11.6039 10.7897 11.5741 10.7977 11.5166 10.8232C11.4512 10.8524 11.4127 10.8626 11.3391 10.8626C11.2654 10.8626 11.2269 10.8524 11.1615 10.8232C11.104 10.7977 11.0742 10.7897 11.0114 10.7897C10.907 10.7897 10.8024 10.813 10.6974 10.8597Z" fill="white"/>
</g>
<path fill-rule="evenodd" clip-rule="evenodd" d="M4.11723 9.79969C4.24343 9.64667 4.314 9.50748 4.314 9.35964C4.314 9.26643 4.28626 9.18591 4.23766 9.12014L4.24588 9.11645C4.24512 9.11679 4.38433 9.05611 4.43279 9.03287C4.52289 8.98967 4.60226 8.94392 4.67965 8.88764C4.72905 8.85171 4.79525 8.81257 4.89617 8.75839L4.991 8.70795L5.0166 8.69435C5.06565 8.66818 5.10217 8.64813 5.1361 8.62844C5.24183 8.56712 5.3117 8.51643 5.36514 8.44866C5.49172 8.28815 5.46544 8.07058 5.28807 7.94982C5.20117 7.89065 5.0839 7.8567 4.91201 7.82998L4.87641 7.82447L4.66616 7.79187C4.5839 7.77896 4.51051 7.7669 4.44506 7.75547C4.87542 7.68386 5.48994 7.71018 5.76025 7.84974L6.01716 7.35215C5.46632 7.06775 4.21124 7.09679 3.74241 7.41966C3.39854 7.65648 3.44468 8.01445 3.80246 8.1686C3.95197 8.23301 4.14686 8.27575 4.50751 8.3337C4.44708 8.36876 4.39697 8.40079 4.35028 8.43474C4.30293 8.46917 4.2522 8.49842 4.19067 8.52792C4.16125 8.54203 4.07415 8.58027 4.0342 8.59782L4.03416 8.59783L4.03415 8.59784L4.01408 8.60668C3.72265 8.73919 3.58121 8.9225 3.62348 9.25342L3.64636 9.43255L3.68739 9.44516L4.11723 9.79969ZM3.75699 9.33676L3.7561 9.33933L3.75678 9.33751L3.75699 9.33676ZM11.441 9.35964C11.441 9.50748 11.5115 9.64667 11.6378 9.79969L12.0676 9.44516L12.1086 9.43255L12.1315 9.25342C12.1738 8.9225 12.0323 8.73919 11.7409 8.60668L11.7208 8.59784L11.7207 8.5978C11.6808 8.58025 11.5937 8.54202 11.5643 8.52792C11.5028 8.49842 11.452 8.46917 11.4047 8.43474C11.358 8.40079 11.3079 8.36876 11.2475 8.3337C11.6081 8.27575 11.803 8.23301 11.9525 8.1686C12.3103 8.01445 12.3564 7.65648 12.0126 7.41966C11.5437 7.09679 10.2887 7.06775 9.73781 7.35215L9.99472 7.84974C10.265 7.71018 10.8796 7.68386 11.3099 7.75547C11.2445 7.7669 11.1711 7.77896 11.0888 7.79187L10.8785 7.82447L10.843 7.82998C10.6711 7.8567 10.5538 7.89065 10.4669 7.94982C10.2895 8.07058 10.2633 8.28815 10.3898 8.44866C10.4433 8.51643 10.5131 8.56712 10.6189 8.62845C10.6528 8.64813 10.6893 8.66818 10.7384 8.69435L10.764 8.70798L10.8588 8.75839C10.9597 8.81257 11.0259 8.85171 11.0753 8.88764C11.1527 8.94392 11.2321 8.98967 11.3222 9.03287C11.3707 9.05611 11.5099 9.11679 11.5091 9.11645L11.5173 9.12014C11.4687 9.18591 11.441 9.26643 11.441 9.35964Z" fill="#AD1619"/>
<path d="M4.701 7.75L4.90762 7.79274V8.1007C4.68756 8.27629 4.12891 8.57223 4.12891 8.57223V7.75H4.701Z" fill="#F1F9FF"/>
<path d="M11.1955 7.75L10.9889 7.79274V8.1007C11.2089 8.27629 11.7676 8.57223 11.7676 8.57223V7.75H11.1955Z" fill="#F1F9FF"/>
<path fill-rule="evenodd" clip-rule="evenodd" d="M10.2357 4.50361V4.40112C9.87565 4.14272 9.4986 4.01352 9.10456 4.01352C8.72679 3.84635 8.34442 3.78145 7.95744 3.81885C7.95755 3.81765 7.9576 3.81704 7.9576 3.81704C7.37574 3.76011 6.78934 4.01352 6.78934 4.01352C6.19828 4.01352 5.6582 4.40112 5.6582 4.40112V4.50361L6.36422 5.21269C6.36422 5.21269 6.56295 5.89519 7.95473 5.73479V5.73652C7.95473 5.73652 8.87619 5.71137 8.94094 5.68983C8.96663 5.68129 8.99328 5.67351 9.0205 5.66556C9.20099 5.61287 9.40703 5.55271 9.52968 5.21269L10.2357 4.50361ZM7.95473 3.8502C7.93463 4.08628 7.81991 5.50936 7.95473 5.72999V3.8502Z" fill="#AD1619"/>
<path fill-rule="evenodd" clip-rule="evenodd" d="M6.19544 5.09358L6.19591 5.09142L5.69922 4.62412L5.74718 4.57313L6.21326 5.01163L6.22519 4.95678C6.30144 4.97336 6.35717 4.97945 6.38966 4.976V4.88088L6.49297 4.93679C6.54379 4.96429 6.61657 4.97168 6.71242 4.95609C6.78282 4.94463 6.83033 4.86287 6.84586 4.68864L6.87722 4.33691L6.98241 4.67401C7.03 4.82654 7.10262 4.89378 7.20599 4.89378C7.30696 4.89378 7.34754 4.85677 7.35202 4.76347L7.36473 4.49886L7.48439 4.73521C7.5275 4.82035 7.58696 4.85899 7.67149 4.85899C7.7924 4.85899 7.87316 4.75819 7.87316 4.60004H7.87544H8.01316H8.01544C8.01544 4.75819 8.09621 4.85899 8.21711 4.85899C8.30165 4.85899 8.3611 4.82035 8.40421 4.73521L8.52388 4.49886L8.53658 4.76347C8.54106 4.85677 8.58165 4.89378 8.68261 4.89378C8.78599 4.89378 8.8586 4.82654 8.9062 4.67401L9.01139 4.33691L9.04275 4.68864C9.05828 4.86287 9.10578 4.94463 9.17619 4.95609C9.27204 4.97168 9.34481 4.96429 9.39563 4.93679L9.49895 4.88088V4.976C9.53143 4.97945 9.58717 4.97336 9.66341 4.95678L9.68555 5.05857L10.2015 4.57313L10.2495 4.62412L9.60741 5.22819C9.51374 5.40071 9.46656 5.51458 9.46656 5.56188C9.46656 5.63404 9.27882 5.67687 8.91241 5.72086C8.62535 5.75533 8.28658 5.77846 8.00948 5.78192V5.78237L7.97435 5.78225L7.93922 5.78237V5.78192C7.66211 5.77846 7.32334 5.75533 7.03629 5.72086C6.66987 5.67687 6.48213 5.63404 6.48213 5.56188C6.48213 5.55293 6.48044 5.5416 6.47707 5.52794C6.44012 5.48089 6.41414 5.40391 6.39686 5.33447C6.38064 5.302 6.36211 5.26655 6.34128 5.22819L6.19903 5.09436L6.19544 5.09358ZM9.63635 5.10485C9.52171 5.12514 9.43893 5.12309 9.395 5.08733C9.3263 5.10732 9.24571 5.10924 9.1537 5.09427C9.05543 5.07828 8.98699 5.01291 8.94581 4.90447C8.89205 4.97296 8.82408 5.01525 8.74265 5.02892C9.1906 5.09245 9.50439 5.18174 9.50439 5.18174C9.50439 5.18174 9.49665 5.24808 9.47784 5.32608C9.49775 5.28525 9.52134 5.23988 9.54861 5.1898L9.55536 5.18105L9.63635 5.10485ZM8.53127 5.00231C8.49231 4.98295 8.4612 4.95488 8.43871 4.91871C8.40531 4.9482 8.36733 4.96977 8.32514 4.98308C8.39557 4.98847 8.46444 4.99498 8.53127 5.00231ZM8.07803 4.96946C8.0235 4.94426 7.97816 4.90391 7.9443 4.85221C7.91068 4.90355 7.86575 4.94369 7.81174 4.96893C7.84373 4.96797 7.87592 4.9673 7.90825 4.96694V4.96662L7.93632 4.9667L7.96439 4.96662V4.96694C8.0025 4.96737 8.0404 4.96822 8.07803 4.96946ZM6.38824 5.17626L6.32298 5.11486C6.40132 5.12263 6.45931 5.11525 6.4936 5.08733C6.56231 5.10732 6.64289 5.10924 6.73491 5.09427C6.83318 5.07828 6.90161 5.01291 6.94279 4.90447C6.995 4.97098 7.0606 5.01277 7.13891 5.02766C6.75269 5.08192 6.46454 5.15575 6.38824 5.17626ZM7.56043 4.98211C7.49261 4.98715 7.42621 4.99324 7.36164 5.00012C7.39859 4.98086 7.42824 4.95354 7.4499 4.91871C7.48249 4.94749 7.51945 4.96873 7.56043 4.98211ZM9.28252 5.56325C9.33156 5.5862 9.37088 5.5633 9.40196 5.51936C9.39927 5.53149 9.39759 5.54247 9.39691 5.5523C9.3928 5.55498 9.38651 5.55822 9.37825 5.56169C9.35519 5.57139 9.31998 5.58171 9.27417 5.59216C9.18412 5.6127 9.05596 5.63313 8.90406 5.65136C8.60745 5.68698 8.25474 5.71041 7.97435 5.71225C7.69395 5.71041 7.34125 5.68698 7.04463 5.65136C6.89274 5.63313 6.76457 5.6127 6.67453 5.59216C6.63613 5.5834 6.60518 5.57473 6.58259 5.56644C6.58507 5.5655 6.58759 5.56443 6.59012 5.56325C6.74304 5.49169 7.75422 5.42455 7.93632 5.41296C8.11842 5.42455 9.1296 5.49169 9.28252 5.56325ZM9.47535 5.55042L9.47429 5.55165L9.47493 5.55076L9.47535 5.55042Z" fill="#C88A02"/>
<path fill-rule="evenodd" clip-rule="evenodd" d="M7.94437 3.34187C8.06035 3.34187 8.15437 3.24785 8.15437 3.13187C8.15437 3.0159 8.06035 2.92188 7.94437 2.92188C7.8284 2.92188 7.73438 3.0159 7.73438 3.13187C7.73438 3.24785 7.8284 3.34187 7.94437 3.34187Z" fill="#005BBF"/>
<path fill-rule="evenodd" clip-rule="evenodd" d="M7.80905 4.37318C7.81353 4.39622 7.82053 4.41768 7.82937 4.4368C7.80225 4.42644 7.77005 4.42044 7.73552 4.42044C7.63887 4.42044 7.56052 4.46745 7.56052 4.52544C7.56052 4.58343 7.63887 4.63044 7.73552 4.63044C7.83217 4.63044 7.91052 4.58343 7.91052 4.52544C7.91052 4.58343 7.98887 4.63044 8.08552 4.63044C8.18217 4.63044 8.26052 4.58343 8.26052 4.52544C8.26052 4.46745 8.18217 4.42044 8.08552 4.42044C8.06119 4.42044 8.03802 4.42342 8.01696 4.4288C8.02204 4.4001 8.02182 4.36718 8.0152 4.33311C7.99675 4.23823 7.93566 4.17029 7.87873 4.18136C7.82181 4.19242 7.79061 4.2783 7.80905 4.37318ZM7.91052 4.52544L7.91044 4.52224L7.91059 4.52229L7.91052 4.52544ZM6.77937 4.5068C6.77053 4.48768 6.76353 4.46622 6.75905 4.44318C6.74061 4.3483 6.77181 4.26242 6.82873 4.25136C6.88566 4.24029 6.94675 4.30823 6.9652 4.40311C6.97182 4.43718 6.97204 4.4701 6.96696 4.4988C6.98802 4.49342 7.01119 4.49044 7.03552 4.49044C7.13217 4.49044 7.21052 4.53745 7.21052 4.59544C7.21052 4.65343 7.13217 4.70044 7.03552 4.70044C6.93887 4.70044 6.86052 4.65343 6.86052 4.59544L6.86059 4.59229L6.86044 4.59224L6.86052 4.59544C6.86052 4.65343 6.78217 4.70044 6.68552 4.70044C6.58887 4.70044 6.51052 4.65343 6.51052 4.59544C6.51052 4.53745 6.58887 4.49044 6.68552 4.49044C6.72005 4.49044 6.75225 4.49644 6.77937 4.5068ZM8.97172 4.57079C8.96365 4.62822 8.87952 4.66387 8.78381 4.65041C8.6881 4.63696 8.61706 4.57951 8.62513 4.52208C8.6332 4.46465 8.71733 4.42901 8.81304 4.44246C8.84724 4.44726 8.87829 4.45769 8.90371 4.47172C8.89761 4.45156 8.89367 4.42933 8.89244 4.40589C8.88738 4.30937 8.93023 4.22867 8.98814 4.22563C9.04605 4.2226 9.09709 4.29838 9.10215 4.3949C9.10397 4.42956 9.09961 4.46219 9.09059 4.48991C9.11218 4.48751 9.13554 4.48778 9.15963 4.49117C9.25534 4.50462 9.32639 4.56208 9.31832 4.6195C9.31025 4.67693 9.22612 4.71258 9.13041 4.69912C9.0347 4.68567 8.96365 4.62822 8.97172 4.57079ZM8.97172 4.57079L8.97209 4.56761L8.97224 4.56768L8.97172 4.57079ZM9.63823 4.84845C9.72357 4.89382 9.81482 4.8891 9.84204 4.8379L9.84348 4.83503C9.85189 4.84393 9.86184 4.85041 9.87319 4.85388C9.92865 4.87083 9.99651 4.80965 10.0248 4.71722C10.053 4.62479 10.031 4.53612 9.97552 4.51917C9.92006 4.50221 9.8522 4.5634 9.82394 4.65582C9.81708 4.67828 9.81318 4.70051 9.81201 4.72154C9.79293 4.69966 9.76732 4.67925 9.73682 4.66303C9.65149 4.61766 9.56024 4.62238 9.53301 4.67358C9.50579 4.72479 9.5529 4.80308 9.63823 4.84845ZM6.20353 4.86989C6.11819 4.91527 6.02694 4.91054 5.99972 4.85934C5.99921 4.8584 5.99874 4.85744 5.99828 4.85647C5.98988 4.86537 5.97992 4.87185 5.96857 4.87532C5.91312 4.89227 5.84525 4.83109 5.817 4.73866C5.78874 4.64624 5.81079 4.55757 5.86624 4.54061C5.9217 4.52366 5.98956 4.58484 6.01782 4.67727C6.02468 4.69972 6.02858 4.72195 6.02975 4.74299C6.04883 4.7211 6.07445 4.70069 6.10494 4.68447C6.19028 4.6391 6.28152 4.64382 6.30875 4.69503C6.33597 4.74623 6.28886 4.82452 6.20353 4.86989Z" fill="#C88A02"/>
<path fill-rule="evenodd" clip-rule="evenodd" d="M7.8663 2.54785H8.01213V2.63998H8.10742V2.78581H8.01213V3.07748H8.10742V3.22331H7.76953V3.07748H7.8663V2.78581H7.76953V2.63998H7.8663V2.54785Z" fill="#C88A02"/>
<rect x="7.83984" y="3.33984" width="0.28" height="0.91" fill="#C88A02"/>
<path d="M6.71286 3.49259L6.71164 3.56258C6.09095 3.55174 5.73492 3.64232 5.64454 3.82285C5.5511 4.0095 5.56848 4.23638 5.6994 4.5059L5.63644 4.53649C5.49675 4.24893 5.47767 3.99981 5.58194 3.79152C5.68928 3.57712 6.06591 3.4813 6.71286 3.49259Z" fill="white"/>
<path d="M6.83246 4.11321L6.79657 4.17332C6.6614 4.09261 6.59375 3.95487 6.59375 3.76506C6.59375 3.49226 6.73428 3.33229 7.04512 3.22281C7.24351 3.15295 7.51452 3.18159 7.8589 3.30645L7.83504 3.37226C7.50444 3.2524 7.24863 3.22536 7.06838 3.28884C6.78326 3.38925 6.66375 3.5253 6.66375 3.76506C6.66375 3.93163 6.71994 4.04603 6.83246 4.11321Z" fill="white"/>
<path d="M5.78714 4.39857L5.65505 4.44497C5.518 4.05475 5.55714 3.78974 5.79132 3.67543C5.99768 3.5747 6.29842 3.5337 6.69504 3.54977L6.68937 3.68966C6.31385 3.67444 6.03447 3.71252 5.85274 3.80124C5.69883 3.87636 5.67068 4.06698 5.78714 4.39857Z" fill="#C88A02"/>
<path d="M7.33131 3.39928C7.01122 3.39928 6.87978 3.47724 6.80468 3.70742C6.75683 3.8541 6.80324 3.9793 6.95373 4.09617L6.86787 4.20674C6.67303 4.05544 6.60433 3.87014 6.67159 3.66399C6.76729 3.37065 6.95507 3.25928 7.33131 3.25928C7.57791 3.25928 7.77 3.32406 7.90376 3.45591L7.92462 3.47648V4.15145H7.78462V3.53631C7.68016 3.44558 7.5301 3.39928 7.33131 3.39928Z" fill="#C88A02"/>
<path d="M9.15628 3.56241L9.1575 3.6324C9.77819 3.62157 10.1342 3.71215 10.2246 3.89268C10.318 4.07932 10.3007 4.30621 10.1697 4.57573L10.2327 4.60631C10.3724 4.31875 10.3915 4.06963 10.2872 3.86134C10.1799 3.64694 9.80323 3.55112 9.15628 3.56241Z" fill="white"/>
<path d="M8.93707 4.12786L8.97296 4.18796C9.10813 4.10726 9.17578 3.96952 9.17578 3.77971C9.17578 3.50691 9.03525 3.34694 8.72441 3.23746C8.52602 3.16759 8.25501 3.19624 7.91063 3.3211L7.93449 3.38691C8.26509 3.26705 8.5209 3.24001 8.70116 3.30349C8.98627 3.4039 9.10578 3.53995 9.10578 3.77971C9.10578 3.94628 9.04959 4.06068 8.93707 4.12786Z" fill="white"/>
<path d="M10.125 4.4684L10.2571 4.51479C10.3941 4.12457 10.355 3.85957 10.1208 3.74525C9.91443 3.64452 9.61369 3.60353 9.21707 3.6196L9.22274 3.75948C9.59826 3.74427 9.87764 3.78235 10.0594 3.87106C10.2133 3.94619 10.2414 4.13681 10.125 4.4684Z" fill="#C88A02"/>
<path d="M8.57298 3.41002C8.89307 3.41002 9.02452 3.48798 9.09961 3.71816C9.14747 3.86485 9.10106 3.99004 8.95056 4.10691L9.03643 4.21748C9.23127 4.06618 9.29996 3.88088 9.23271 3.67474C9.13701 3.38139 8.94922 3.27002 8.57298 3.27002C8.32639 3.27002 8.13429 3.33481 8.00054 3.46666L7.97968 3.48722V4.1622H8.11968V3.54706C8.22414 3.45632 8.37419 3.41002 8.57298 3.41002Z" fill="#C88A02"/>
<path opacity="0.3" fill-rule="evenodd" clip-rule="evenodd" d="M5.66992 5.79004H10.2199V9.87806C10.2199 9.87806 9.88194 11.25 7.94492 11.25C6.00791 11.25 5.66992 9.84188 5.66992 9.84188V5.79004Z" fill="#E1E5E8"/>
<mask id="mask4_5985_49731" style="mask-type:alpha" maskUnits="userSpaceOnUse" x="5" y="5" width="6" height="7">
<path fill-rule="evenodd" clip-rule="evenodd" d="M5.66992 5.79004H10.2199V9.87806C10.2199 9.87806 9.88194 11.25 7.94492 11.25C6.00791 11.25 5.66992 9.84188 5.66992 9.84188V5.79004Z" fill="white"/>
</mask>
<g mask="url(#mask4_5985_49731)">
<rect x="5.66992" y="8.31006" width="2.31" height="2.73" fill="#FFC034"/>
<rect x="5.94922" y="8.4502" width="0.28" height="2.59" fill="#AD1619"/>
<rect x="6.92969" y="8.4502" width="0.28" height="2.59" fill="#AD1619"/>
<rect x="6.43945" y="8.4502" width="0.28" height="2.59" fill="#AD1619"/>
<rect x="7.41992" y="8.4502" width="0.28" height="2.59" fill="#AD1619"/>
<rect x="5.66992" y="5.72021" width="2.31" height="2.66" fill="#AD1619"/>
<rect x="7.91016" y="8.24023" width="2.31" height="2.66" fill="#AD1619"/>
<rect x="7.91016" y="5.79004" width="2.45" height="2.59" fill="#F1F9FF"/>
<path fill-rule="evenodd" clip-rule="evenodd" d="M6.65016 6H6.86016V6.58074H7.00016V6.29037H7.21016V6.58074H7.42016V6.9437H7.21016V7.59704H7.42016V7.96H6.16016V7.59704H6.37016V6.9437H6.16016V6.58074H6.30016V6.29037H6.51016V6.58074H6.65016V6Z" fill="#C88A02"/>
<path d="M9.11133 6.12172L9.25468 5.96826L9.55564 6.2494L9.41229 6.40286L9.11133 6.12172Z" fill="#C88A02"/>
<path fill-rule="evenodd" clip-rule="evenodd" d="M9.97461 10.0877V8.55518H8.22461V10.0749L8.22739 10.0867C8.31597 10.4642 8.61766 10.6552 9.09961 10.6552C9.5811 10.6552 9.88274 10.4691 9.97169 10.0998L9.97461 10.0877ZM9.09961 10.4452C8.71292 10.4452 8.50174 10.3149 8.43461 10.0501V8.76518H9.76461V10.0623C9.69765 10.3184 9.48645 10.4452 9.09961 10.4452Z" fill="#FFC034"/>
<path fill-rule="evenodd" clip-rule="evenodd" d="M9.17144 8.68311H9.0256V9.3779L8.45072 8.75264L8.34766 8.84739L8.86756 9.41285H8.3965V9.62285H8.75836H8.87902L8.34766 10.2008L8.45072 10.2955L9.0256 9.67027V10.4824H9.17144V9.74335L9.67913 10.2955L9.78219 10.2008L9.25083 9.62285H9.84393V9.41285H9.26228L9.78219 8.84739L9.67913 8.75264L9.17144 9.30481V8.68311Z" fill="#FFC034"/>
<path fill-rule="evenodd" clip-rule="evenodd" d="M9.42575 10.9017C9.42575 10.9017 7.94312 11.0182 7.94312 10.062C7.94312 10.062 7.92898 10.9017 6.38086 10.9017V11.6566H9.42575V10.9017Z" fill="#F1F9FF"/>
<path fill-rule="evenodd" clip-rule="evenodd" d="M7.94492 8.87C8.23487 8.87 8.46992 8.61928 8.46992 8.31C8.46992 8.00072 8.23487 7.75 7.94492 7.75C7.65497 7.75 7.41992 8.00072 7.41992 8.31C7.41992 8.61928 7.65497 8.87 7.94492 8.87Z" fill="#005BBF" stroke="#AD1619" stroke-width="0.729167"/>
</g>
</g>
</g>
<rect x="3" y="2" width="16" height="12" fill="url(#paint0_linear_5985_49731)" style="mix-blend-mode:overlay"/>
</g>
</g>
<defs>
<filter id="filter0_d_5985_49731" x="0" y="1" width="22" height="18" filterUnits="userSpaceOnUse" color-interpolation-filters="sRGB">
<feFlood flood-opacity="0" result="BackgroundImageFix"/>
<feColorMatrix in="SourceAlpha" type="matrix" values="0 0 0 0 0 0 0 0 0 0 0 0 0 0 0 0 0 0 127 0" result="hardAlpha"/>
<feOffset dy="2"/>
<feGaussianBlur stdDeviation="1.5"/>
<feColorMatrix type="matrix" values="0 0 0 0 0 0 0 0 0 0 0 0 0 0 0 0 0 0 0.1 0"/>
<feBlend mode="normal" in2="BackgroundImageFix" result="effect1_dropShadow_5985_49731"/>
<feBlend mode="normal" in="SourceGraphic" in2="effect1_dropShadow_5985_49731" result="shape"/>
</filter>
<linearGradient id="paint0_linear_5985_49731" x1="11" y1="2" x2="11" y2="14" gradientUnits="userSpaceOnUse">
<stop stop-color="white" stop-opacity="0.7"/>
<stop offset="1" stop-opacity="0.3"/>
</linearGradient>
<clipPath id="clip0_5985_49731">
<rect x="3" y="2" width="16" height="12" rx="1.5" fill="white"/>
</clipPath>
</defs>
</svg>
