<svg width="22" height="16" viewBox="0 0 22 16" fill="none" xmlns="http://www.w3.org/2000/svg">
<g filter="url(#filter0_d_5985_48133)">
<mask id="mask0_5985_48133" style="mask-type:alpha" maskUnits="userSpaceOnUse" x="3" y="2" width="16" height="12">
<rect x="3" y="2" width="16" height="12" fill="white"/>
</mask>
<g mask="url(#mask0_5985_48133)">
<path fill-rule="evenodd" clip-rule="evenodd" d="M3 2H19V14H3V2Z" fill="#F7FCFF"/>
<path fill-rule="evenodd" clip-rule="evenodd" d="M3 2V14H19V2H3Z" fill="#E31D1C"/>
<mask id="mask1_5985_48133" style="mask-type:alpha" maskUnits="userSpaceOnUse" x="3" y="2" width="16" height="12">
<path fill-rule="evenodd" clip-rule="evenodd" d="M3 2V14H19V2H3Z" fill="white"/>
</mask>
<g mask="url(#mask1_5985_48133)">
<path fill-rule="evenodd" clip-rule="evenodd" d="M11.0323 9.98993L8.45681 11.6274L9.32066 8.76088L7.4837 6.88805L10.0163 6.83272L11.1368 4.00281L12.1578 6.8701L14.6843 6.91421L12.7857 8.82136L13.6723 11.5484L11.0323 9.98993Z" fill="#FFD221"/>
</g>
</g>
<rect x="3" y="2" width="16" height="12" fill="url(#paint0_linear_5985_48133)" style="mix-blend-mode:screen"/>
</g>
<defs>
<filter id="filter0_d_5985_48133" x="0" y="1" width="22" height="18" filterUnits="userSpaceOnUse" color-interpolation-filters="sRGB">
<feFlood flood-opacity="0" result="BackgroundImageFix"/>
<feColorMatrix in="SourceAlpha" type="matrix" values="0 0 0 0 0 0 0 0 0 0 0 0 0 0 0 0 0 0 127 0" result="hardAlpha"/>
<feOffset dy="2"/>
<feGaussianBlur stdDeviation="1.5"/>
<feColorMatrix type="matrix" values="0 0 0 0 0 0 0 0 0 0 0 0 0 0 0 0 0 0 0.1 0"/>
<feBlend mode="normal" in2="BackgroundImageFix" result="effect1_dropShadow_5985_48133"/>
<feBlend mode="normal" in="SourceGraphic" in2="effect1_dropShadow_5985_48133" result="shape"/>
</filter>
<linearGradient id="paint0_linear_5985_48133" x1="11" y1="2" x2="11" y2="14" gradientUnits="userSpaceOnUse">
<stop stop-color="white" stop-opacity="0.7"/>
<stop offset="1" stop-opacity="0.3"/>
</linearGradient>
</defs>
</svg>
