<svg width="22" height="16" viewBox="0 0 22 16" fill="none" xmlns="http://www.w3.org/2000/svg">
<g filter="url(#filter0_d)">
<mask id="mask0" mask-type="alpha" maskUnits="userSpaceOnUse" x="3" y="2" width="16" height="12">
<rect x="3" y="2" width="16" height="12" fill="white"/>
</mask>
<g mask="url(#mask0)">
<path fill-rule="evenodd" clip-rule="evenodd" d="M3 2H19V14H3V2Z" fill="#E31D1C"/>
<path fill-rule="evenodd" clip-rule="evenodd" d="M3 3V4H19V3H3ZM3 5V6H19V5H3ZM3 8V7H19V8H3ZM3 9V10H19V9H3ZM3 12V11H19V12H3ZM3 14V13H19V14H3Z" fill="#F7FCFF"/>
<rect x="3" y="2" width="9" height="7" fill="#2E42A5"/>
<path fill-rule="evenodd" clip-rule="evenodd" d="M4.04005 4.17375L4.56997 3.80462L4.98103 4.10055H4.74829L5.21896 4.51685L5.05999 5.10055H4.811L4.56923 4.56445L4.36305 5.10055H3.74829L4.21896 5.51685L4.04005 6.17375L4.56997 5.80462L4.98103 6.10055H4.74829L5.21896 6.51685L5.05999 7.10055H4.811L4.56923 6.56445L4.36305 7.10055H3.74829L4.21896 7.51685L4.04005 8.17375L4.56997 7.80462L5.08271 8.17375L4.92329 7.51685L5.33506 7.10055H5.14514L5.56997 6.80462L5.98103 7.10055H5.74829L6.21896 7.51685L6.04005 8.17375L6.56997 7.80462L7.08271 8.17375L6.92329 7.51685L7.33506 7.10055H7.14514L7.56997 6.80462L7.98103 7.10055H7.74829L8.21896 7.51685L8.04005 8.17375L8.56997 7.80462L9.08271 8.17375L8.92329 7.51685L9.33506 7.10055H9.14514L9.56997 6.80462L9.98103 7.10055H9.74829L10.219 7.51685L10.0401 8.17375L10.57 7.80462L11.0827 8.17375L10.9233 7.51685L11.3351 7.10055H10.811L10.5692 6.56445L10.363 7.10055H10.0649L9.92329 6.51685L10.3351 6.10055H10.1451L10.57 5.80462L11.0827 6.17375L10.9233 5.51685L11.3351 5.10055H10.811L10.5692 4.56445L10.363 5.10055H10.0649L9.92329 4.51685L10.3351 4.10055H10.1451L10.57 3.80462L11.0827 4.17375L10.9233 3.51685L11.3351 3.10055H10.811L10.5692 2.56445L10.363 3.10055H9.74829L10.219 3.51685L10.06 4.10055H9.811L9.56923 3.56445L9.36305 4.10055H9.06494L8.92329 3.51685L9.33506 3.10055H8.811L8.56923 2.56445L8.36305 3.10055H7.74829L8.21896 3.51685L8.05999 4.10055H7.811L7.56923 3.56445L7.36305 4.10055H7.06494L6.92329 3.51685L7.33506 3.10055H6.811L6.56923 2.56445L6.36305 3.10055H5.74829L6.21896 3.51685L6.05999 4.10055H5.811L5.56923 3.56445L5.36305 4.10055H5.06494L4.92329 3.51685L5.33506 3.10055H4.811L4.56923 2.56445L4.36305 3.10055H3.74829L4.21896 3.51685L4.04005 4.17375ZM10.06 6.10055L10.219 5.51685L9.74829 5.10055H9.98103L9.56997 4.80462L9.14514 5.10055H9.33506L8.92329 5.51685L9.06494 6.10055H9.36305L9.56923 5.56445L9.811 6.10055H10.06ZM8.98103 6.10055L8.56997 5.80462L8.14514 6.10055H8.33506L7.92329 6.51685L8.06494 7.10055H8.36305L8.56923 6.56445L8.811 7.10055H9.05999L9.21896 6.51685L8.74829 6.10055H8.98103ZM7.21896 6.51685L7.05999 7.10055H6.811L6.56923 6.56445L6.36305 7.10055H6.06494L5.92329 6.51685L6.33506 6.10055H6.14514L6.56997 5.80462L6.98103 6.10055H6.74829L7.21896 6.51685ZM7.36305 6.10055H7.06494L6.92329 5.51685L7.33506 5.10055H7.14514L7.56997 4.80462L7.98103 5.10055H7.74829L8.21896 5.51685L8.05999 6.10055H7.811L7.56923 5.56445L7.36305 6.10055ZM6.05999 6.10055L6.21896 5.51685L5.74829 5.10055H5.98103L5.56997 4.80462L5.14514 5.10055H5.33506L4.92329 5.51685L5.06494 6.10055H5.36305L5.56923 5.56445L5.811 6.10055H6.05999ZM9.21896 4.51685L9.05999 5.10055H8.811L8.56923 4.56445L8.36305 5.10055H8.06494L7.92329 4.51685L8.33506 4.10055H8.14514L8.56997 3.80462L8.98103 4.10055H8.74829L9.21896 4.51685ZM6.98103 4.10055L6.56997 3.80462L6.14514 4.10055H6.33506L5.92329 4.51685L6.06494 5.10055H6.36305L6.56923 4.56445L6.811 5.10055H7.05999L7.21896 4.51685L6.74829 4.10055H6.98103Z" fill="#F7FCFF"/>
</g>
<rect x="3" y="2" width="16" height="12" fill="url(#paint0_linear)" style="mix-blend-mode:overlay"/>
</g>
<defs>
<filter id="filter0_d" x="0" y="1" width="22" height="18" filterUnits="userSpaceOnUse" color-interpolation-filters="sRGB">
<feFlood flood-opacity="0" result="BackgroundImageFix"/>
<feColorMatrix in="SourceAlpha" type="matrix" values="0 0 0 0 0 0 0 0 0 0 0 0 0 0 0 0 0 0 127 0"/>
<feOffset dy="2"/>
<feGaussianBlur stdDeviation="1.5"/>
<feColorMatrix type="matrix" values="0 0 0 0 0 0 0 0 0 0 0 0 0 0 0 0 0 0 0.1 0"/>
<feBlend mode="normal" in2="BackgroundImageFix" result="effect1_dropShadow"/>
<feBlend mode="normal" in="SourceGraphic" in2="effect1_dropShadow" result="shape"/>
</filter>
<linearGradient id="paint0_linear" x1="11" y1="2" x2="11" y2="14" gradientUnits="userSpaceOnUse">
<stop stop-color="white" stop-opacity="0.7"/>
<stop offset="1" stop-opacity="0.3"/>
</linearGradient>
</defs>
</svg>
