<svg width="48" height="48" viewBox="0 0 48 48" fill="none" xmlns="http://www.w3.org/2000/svg">
<path fill-rule="evenodd" clip-rule="evenodd" d="M23.2905 29.5705L31.1539 10.456L25.6306 47.9455C25.0917 47.9816 24.548 48 24 48C12.6629 48 3.16172 40.1391 0.649807 29.5705H22.1943H23.2905ZM0.108573 26.2978C0.0367399 25.5415 0 24.7751 0 24C0 10.7452 10.7452 0 24 0C26.5947 0 29.0932 0.411748 31.4338 1.17347L21.098 26.2978H0.108573ZM35.5656 2.96546L30.0244 40.576L37.8863 26.2978H47.8914C47.9633 25.5415 48 24.7751 48 24C48 14.9384 42.9781 7.04982 35.5656 2.96546ZM47.3502 29.5705H39.8203L30.1037 47.2169C38.6305 44.9814 45.3056 38.1729 47.3502 29.5705Z" fill="#FF0012"/>
</svg>
