<svg width="48" height="48" viewBox="0 0 48 48" fill="none" xmlns="http://www.w3.org/2000/svg">
<path d="M18.5159 7.99926C20.2258 7.41333 21.1369 5.55222 20.551 3.84235C19.9651 2.13247 18.104 1.22133 16.3941 1.80726C14.097 2.59439 11.9626 3.72705 10.0525 5.14176C4.29115 9.40907 0.545898 16.2675 0.545898 24C0.545898 31.7325 4.29115 38.5909 10.0525 42.8582C11.9571 44.2688 14.0848 45.3991 16.3744 46.1859C18.0837 46.7734 19.9457 45.8639 20.5331 44.1546C21.1206 42.4452 20.2111 40.5833 18.5017 39.9958C16.8559 39.4302 15.3232 38.6167 13.9483 37.5984C9.78185 34.5124 7.09135 29.5707 7.09135 24C7.09135 18.4292 9.78185 13.4876 13.9483 10.4016C15.3271 9.38036 16.8647 8.56507 18.5159 7.99926Z" fill="#FF0012"/>
<path d="M31.6068 1.80726C29.8969 1.22133 28.0358 2.13247 27.4499 3.84235C26.864 5.55222 27.7751 7.41333 29.485 7.99926C31.1362 8.56507 32.6738 9.38036 34.0525 10.4016C38.219 13.4876 40.9095 18.4292 40.9095 24C40.9095 29.5707 38.219 34.5124 34.0525 37.5984C32.6777 38.6167 31.145 39.4302 29.4991 39.9958C27.7898 40.5833 26.8803 42.4452 27.4678 44.1546C28.0552 45.8639 29.9171 46.7734 31.6265 46.1859C33.9161 45.3991 36.0438 44.2688 37.9483 42.8582C43.7097 38.5909 47.455 31.7325 47.455 24C47.455 16.2675 43.7097 9.40907 37.9483 5.14176C36.0383 3.72705 33.9039 2.59439 31.6068 1.80726Z" fill="#FF0012"/>
<path d="M24.0004 34.3636C29.7241 34.3636 34.3641 29.7236 34.3641 24C34.3641 18.2763 29.7241 13.6363 24.0004 13.6363C18.2768 13.6363 13.6368 18.2763 13.6368 24C13.6368 29.7236 18.2768 34.3636 24.0004 34.3636Z" fill="#FF0012"/>
</svg>
