<svg width="88" height="32" viewBox="0 0 110 41" fill="none" xmlns="http://www.w3.org/2000/svg">
<path d="M39.8064 13.5905C40.2107 14.72 39.3215 15.8409 38.1218 15.8409H27.9545C26.9252 15.8409 26.0909 15.0065 26.0909 13.9773L26.0909 11.7298C26.0909 9.41123 23.4309 8.10047 21.5923 9.51303L9.87389 18.5162C8.41743 19.6352 8.41743 21.8307 9.87389 22.9497L21.5923 31.9529C23.4309 33.3654 26.0909 32.0547 26.0909 29.7361L26.0909 27.0227C26.0909 25.9935 26.9252 25.1591 27.9545 25.1591H38.1218C39.3215 25.1591 40.2107 26.28 39.8064 27.4095C36.9708 35.3318 29.3974 41 20.5 41C9.17816 41 0 31.8218 0 20.5C0 9.17816 9.17816 0 20.5 0C29.3974 0 36.9708 5.66817 39.8064 13.5905Z" fill="#FF0012"/>
<path fill-rule="evenodd" clip-rule="evenodd" d="M64.3994 5.76989H63.0539C62.9538 4.82471 62.4645 4.35769 61.5082 4.35769C60.7299 4.35769 60.0404 4.69128 60.0404 5.50302C60.0404 6.21468 60.7855 6.51491 61.8196 6.7929L61.954 6.82943C63.2596 7.18354 64.6106 7.54999 64.6106 9.19476C64.6106 10.8182 63.065 11.5521 61.6083 11.5521C59.8514 11.5521 58.4948 10.6737 58.4059 8.78333H59.7847C59.8181 9.85082 60.5742 10.429 61.6083 10.429C62.4979 10.429 63.2763 10.0287 63.2763 9.20588C63.2763 8.40527 62.5183 8.20156 61.6059 7.95631L61.6058 7.9563L61.6057 7.95628C61.5297 7.93585 61.4526 7.91513 61.3748 7.89375C60.0627 7.53792 58.7172 7.07089 58.695 5.51414C58.6727 3.99074 60.096 3.2346 61.5305 3.2346C63.1428 3.2346 64.2993 4.03521 64.3994 5.76989ZM56.2769 8.92788H57.6112C57.2443 10.4068 55.9322 11.5077 53.9417 11.5077C51.462 11.5077 49.9053 9.75074 49.9053 7.39336C49.9053 5.05823 51.4732 3.27907 53.9528 3.27907C55.9544 3.27907 57.122 4.31321 57.6112 5.85885H56.2769C55.8543 4.90255 55.1649 4.41328 53.9528 4.41328C52.2627 4.41328 51.2508 5.73653 51.2508 7.39336C51.2508 9.0502 52.2627 10.3734 53.9528 10.3734C55.2539 10.3734 55.9544 9.79522 56.2769 8.92788ZM68.5775 3.42363H65.742V11.3631H67.0875V8.38302H68.5775C70.2121 8.38302 71.3908 7.30441 71.3908 5.86997C71.3908 4.46888 70.3011 3.42363 68.5775 3.42363ZM68.4663 7.25993H67.0875V4.54672H68.4663C69.4671 4.54672 70.0453 4.99151 70.0453 5.88109C70.0453 6.77066 69.4671 7.25993 68.4663 7.25993ZM73.6438 11.3631H72.2983V3.42363H75.3228C77.1353 3.42363 78.125 4.37993 78.125 5.68093C78.125 6.70394 77.4689 7.53792 76.5349 7.77143C77.2132 7.99383 77.4689 8.58317 77.7469 9.50611C77.7758 9.59549 77.803 9.6813 77.8292 9.76406C78.0149 10.3506 78.1523 10.7842 78.5031 11.2519V11.3631H77.0575C76.7972 11.0239 76.6656 10.5617 76.5317 10.0915C76.4769 9.89877 76.4216 9.70471 76.357 9.51723C76.1012 8.78333 75.7899 8.24958 74.8224 8.24958H73.6438V11.3631ZM73.6438 4.52448V7.13761H75.2561C76.2569 7.13761 76.7906 6.60387 76.7906 5.78101C76.7906 5.08047 76.3458 4.52448 75.2116 4.52448H73.6438ZM67.0461 15.7109V36.5581H70.433V15.7109H67.0461ZM64.7669 31.682H61.526C61.0004 33.4047 59.6573 34.2806 57.7887 34.2806C55.2193 34.2806 53.2338 32.2368 53.2338 29.0251C53.2338 25.7549 55.2485 23.7403 57.7887 23.7403C59.7741 23.7403 60.9128 24.733 61.4676 26.2513H64.7085C64.1246 23.1563 61.5844 21.0541 57.847 21.0541C53.3214 21.0541 49.9053 24.1782 49.9053 29.0251C49.9053 33.8135 53.3214 36.9668 57.847 36.9668C61.4676 36.9668 64.0662 35.0982 64.7669 31.682ZM77.0013 15.7693V19.0978H73.4684V15.7693H77.0013ZM76.9137 36.5581H73.556V21.4628H76.9137V36.5581ZM93.9687 31.682H90.7278C90.2022 33.4047 88.8592 34.2806 86.9905 34.2806C84.4211 34.2806 82.4357 32.2368 82.4357 29.0251C82.4357 25.7549 84.4503 23.7403 86.9905 23.7403C88.9759 23.7403 90.1147 24.733 90.6694 26.2513H93.9104C93.3264 23.1563 90.7862 21.0541 87.0489 21.0541C82.5233 21.0541 79.1071 24.1782 79.1071 29.0251C79.1071 33.8135 82.5233 36.9668 87.0489 36.9668C90.6694 36.9668 93.268 35.0982 93.9687 31.682ZM110 36.5581H105.854L100.978 30.2222L99.5181 31.7112V36.5581H96.1311V15.7109H99.5181V27.7112L105.474 21.4628H109.533L103.226 27.9155L110 36.5581Z" fill="white"/>
</svg>
