<svg width="48" height="48" viewBox="0 0 48 48" fill="none" xmlns="http://www.w3.org/2000/svg">
<path fill-rule="evenodd" clip-rule="evenodd" d="M31.3131 6.85714C31.3131 10.6442 28.2431 13.7143 24.456 13.7143C23.3283 13.7143 22.2642 13.4421 21.3259 12.9598C21.6992 10.225 20.8347 7.3537 18.7324 5.25143C18.493 5.01199 18.2436 4.78862 17.9855 4.58129C18.9241 1.91284 21.4666 0 24.456 0C28.2431 0 31.3131 3.07005 31.3131 6.85714ZM17.1169 6.86806C19.7948 9.54595 19.7948 13.8876 17.1169 16.5655C16.2327 17.4498 15.167 18.042 14.0397 18.3423C12.3654 16.2198 9.77049 14.8574 6.85731 14.8574C6.63055 14.8574 6.40571 14.8656 6.18309 14.8818C4.83822 12.2979 5.25033 9.03717 7.41944 6.86806C10.0973 4.19018 14.439 4.19018 17.1169 6.86806ZM33.5996 6.85736C33.5996 9.94847 32.0656 12.6813 29.7173 14.3361C30.0512 15.2076 30.5695 16.0246 31.272 16.7271C33.9499 19.405 38.2916 19.405 40.9694 16.7271C43.6473 14.0492 43.6473 9.70752 40.9694 7.02964C38.9515 5.01167 35.9887 4.51438 33.5051 5.53776C33.5673 5.96863 33.5996 6.40923 33.5996 6.85736ZM18.3769 33.933C18.0504 32.9609 17.5 32.0475 16.7257 31.2731C14.0478 28.5953 9.7061 28.5953 7.02822 31.2731C4.35034 33.951 4.35034 38.2927 7.02822 40.9706C9.16476 43.1071 12.3604 43.5391 14.9252 42.2663C14.8801 41.8982 14.8568 41.5233 14.8568 41.143C14.8568 38.2137 16.2344 35.6062 18.3769 33.933ZM41.1419 33.1428C41.5171 33.1428 41.8871 33.1202 42.2505 33.0763C43.6219 35.6668 43.2171 38.9512 41.0362 41.1321C38.3584 43.81 34.0167 43.81 31.3388 41.1321C28.6609 38.4542 28.6609 34.1125 31.3388 31.4346C32.126 30.6474 33.0569 30.0916 34.0471 29.7673C35.7236 31.827 38.2791 33.1428 41.1419 33.1428ZM30.4695 43.4181C30.2115 43.2109 29.9622 42.9875 29.7228 42.7482C27.6206 40.646 26.7561 37.7747 27.1293 35.0401C26.1909 34.5577 25.1267 34.2854 23.9989 34.2854C20.2118 34.2854 17.1418 37.3555 17.1418 41.1426C17.1418 44.9297 20.2118 47.9997 23.9989 47.9997C26.9884 47.9997 29.531 46.0867 30.4695 43.4181ZM13.0785 26.8874C13.4865 26.0098 13.7143 25.0315 13.7143 23.9999C13.7143 20.2128 10.6442 17.1428 6.85714 17.1428C3.07005 17.1428 0 20.2128 0 23.9999C0 27.0043 1.93218 29.5574 4.62171 30.4844C4.88024 30.1396 5.16632 29.8088 5.47995 29.4952C7.55409 27.4211 10.3769 26.5518 13.0785 26.8874ZM42.9775 18.505C40.7936 20.6888 37.7799 21.537 34.9515 21.0494C34.5248 21.9431 34.2859 22.9437 34.2859 24C34.2859 27.7871 37.356 30.8572 41.1431 30.8572C44.9302 30.8572 48.0002 27.7871 48.0002 24C48.0002 21.1296 46.2366 18.6712 43.7338 17.6492C43.5025 17.9461 43.2504 18.232 42.9775 18.505Z" fill="#FF0012"/>
</svg>
