<svg width="88" height="32" viewBox="0 0 88 32" fill="none" xmlns="http://www.w3.org/2000/svg">
<path d="M31.0684 10.6072C31.384 11.4888 30.6899 12.3636 29.7536 12.3636H21.8181C21.0148 12.3636 20.3636 11.7124 20.3636 10.9091L20.3636 9.15495C20.3636 7.34535 18.2875 6.32232 16.8525 7.42481L7.70645 14.4517C6.5697 15.325 6.5697 17.0386 7.70645 17.912L16.8525 24.9388C18.2875 26.0413 20.3636 25.0183 20.3636 23.2087L20.3636 21.0909C20.3636 20.2876 21.0148 19.6364 21.8181 19.6364H29.7536C30.6899 19.6364 31.384 20.5112 31.0684 21.3928C28.8553 27.5761 22.9443 32 16 32C7.16344 32 0 24.8366 0 16C0 7.16344 7.16344 0 16 0C22.9443 0 28.8553 4.42394 31.0684 10.6072Z" fill="#FF0012"/>
<path fill-rule="evenodd" clip-rule="evenodd" d="M50.6785 4.54058H49.6197C49.541 3.79678 49.1559 3.42925 48.4034 3.42925C47.7908 3.42925 47.2483 3.69177 47.2483 4.33056C47.2483 4.8906 47.8346 5.12687 48.6484 5.34564L48.7542 5.37438C49.7816 5.65304 50.8448 5.94142 50.8448 7.23577C50.8448 8.51336 49.6285 9.0909 48.4821 9.0909C47.0995 9.0909 46.032 8.3996 45.962 6.91199H47.047C47.0733 7.75205 47.6683 8.20708 48.4821 8.20708C49.1822 8.20708 49.7947 7.89206 49.7947 7.24452C49.7947 6.61449 49.1983 6.45417 48.4802 6.26118L48.4801 6.26116C48.4203 6.24508 48.3596 6.22877 48.2984 6.21195C47.2658 5.93193 46.207 5.5644 46.1895 4.33932C46.172 3.14048 47.2921 2.54544 48.4209 2.54544C49.6897 2.54544 50.5998 3.17548 50.6785 4.54058ZM44.2866 7.02575H45.3366C45.0479 8.18958 44.0153 9.05589 42.4489 9.05589C40.4975 9.05589 39.2725 7.6733 39.2725 5.81817C39.2725 3.98054 40.5063 2.58044 42.4577 2.58044C44.0328 2.58044 44.9516 3.39425 45.3366 4.61058H44.2866C43.954 3.85803 43.4115 3.47301 42.4577 3.47301C41.1276 3.47301 40.3313 4.51433 40.3313 5.81817C40.3313 7.12201 41.1276 8.16333 42.4577 8.16333C43.4815 8.16333 44.0328 7.7083 44.2866 7.02575ZM53.9665 2.6942H51.7351V8.94214H52.7939V6.59697H53.9665C55.2528 6.59697 56.1804 5.74816 56.1804 4.61933C56.1804 3.51676 55.3229 2.6942 53.9665 2.6942ZM53.879 5.71316H52.7939V3.57801H53.879C54.6666 3.57801 55.1216 3.92804 55.1216 4.62809C55.1216 5.32813 54.6666 5.71316 53.879 5.71316ZM57.9534 8.94214H56.8945V2.6942H59.2747C60.7011 2.6942 61.4799 3.44675 61.4799 4.47057C61.4799 5.27563 60.9636 5.93193 60.2285 6.11569C60.7623 6.2907 60.9636 6.75448 61.1823 7.48078C61.2051 7.55113 61.2265 7.61866 61.2471 7.68379C61.3933 8.14534 61.5013 8.48654 61.7774 8.85463V8.94214H60.6398C60.435 8.67524 60.3314 8.31149 60.226 7.94144L60.226 7.94135C60.1829 7.78973 60.1394 7.63704 60.0885 7.48953C59.8873 6.91199 59.6422 6.49197 58.8809 6.49197H57.9534V8.94214ZM57.9534 3.56051V5.6169H59.2222C60.0098 5.6169 60.4298 5.19687 60.4298 4.54933C60.4298 3.99804 60.0798 3.56051 59.1872 3.56051H57.9534ZM52.7614 12.3636V28.7692H55.4267V12.3636H52.7614ZM50.9678 24.9321H48.4173C48.0037 26.2877 46.9468 26.977 45.4763 26.977C43.4543 26.977 41.8918 25.3686 41.8918 22.8411C41.8918 20.2677 43.4773 18.6823 45.4763 18.6823C47.0387 18.6823 47.9348 19.4635 48.3714 20.6583H50.9218C50.4623 18.2228 48.4633 16.5684 45.5222 16.5684C41.9608 16.5684 39.2725 19.027 39.2725 22.8411C39.2725 26.6094 41.9608 29.0909 45.5222 29.0909C48.3714 29.0909 50.4163 27.6204 50.9678 24.9321ZM60.5956 12.4096V15.029H57.8154V12.4096H60.5956ZM60.5266 28.7692H57.8843V16.8901H60.5266V28.7692ZM73.948 24.9321H71.3976C70.984 26.2877 69.9271 26.977 68.4565 26.977C66.4346 26.977 64.8721 25.3686 64.8721 22.8411C64.8721 20.2677 66.4575 18.6823 68.4565 18.6823C70.019 18.6823 70.9151 19.4635 71.3516 20.6583H73.9021C73.4426 18.2228 71.4436 16.5684 68.5025 16.5684C64.9411 16.5684 62.2527 19.027 62.2527 22.8411C62.2527 26.6094 64.9411 29.0909 68.5025 29.0909C71.3516 29.0909 73.3966 27.6204 73.948 24.9321ZM86.5638 28.7692H83.3011L79.4639 23.7832L78.3151 24.955V28.7692H75.6497V12.3636H78.3151V21.8072L83.0024 16.8901H86.1962L81.2331 21.968L86.5638 28.7692Z" fill="#0021A5"/>
</svg>
