<svg width="60" height="48" viewBox="0 0 60 48" fill="none" xmlns="http://www.w3.org/2000/svg">
<path fill-rule="evenodd" clip-rule="evenodd" d="M51.7442 21.6348C52.0093 20.513 52.1495 19.343 52.1495 18.1402C52.1495 9.77849 45.371 3 37.0093 3C29.7289 3 23.6487 8.13876 22.198 14.987C21.2624 14.494 20.1965 14.215 19.0654 14.215C15.3491 14.215 12.3364 17.2276 12.3364 20.9439C5.52322 20.9439 0 26.4671 0 33.2804C0 40.0936 5.52322 45.6168 12.3364 45.6168H47.6636C54.4768 45.6168 60 40.0936 60 33.2804C60 27.8973 56.5521 23.3194 51.7442 21.6348ZM41.6224 23.0391C42.9251 21.8119 43.7383 20.071 43.7383 18.1402C43.7383 14.4239 40.7257 11.4112 37.0093 11.4112C33.293 11.4112 30.2804 14.4239 30.2804 18.1402C30.2804 18.1691 30.2806 18.1979 30.2809 18.2267L20.9245 19.6886C20.5213 19.0927 19.8391 18.7009 19.0654 18.7009C17.8267 18.7009 16.8224 19.7052 16.8224 20.9439C16.8224 22.1827 17.8267 23.1869 19.0654 23.1869C20.0861 23.1869 20.9475 22.5052 21.2192 21.5722L30.5735 20.1106C30.6468 20.3506 30.7332 20.5848 30.8319 20.8125L16.0619 29.8758C15.1391 28.8666 13.8117 28.2336 12.3364 28.2336C9.54922 28.2336 7.28972 30.4931 7.28972 33.2804C7.28972 36.0676 9.54922 38.3271 12.3364 38.3271C14.3806 38.3271 16.1409 37.1117 16.9342 35.3642L22.9951 36.8188C23.0856 38.5961 24.5553 40.0093 26.3551 40.0093C28.2133 40.0093 29.7196 38.503 29.7196 36.6449C29.7196 34.7867 28.2133 33.2804 26.3551 33.2804C25.1089 33.2804 24.0209 33.9579 23.4395 34.9648L17.378 33.51C17.3815 33.4339 17.3832 33.3573 17.3832 33.2804C17.3832 32.6537 17.269 32.0537 17.0602 31.5001L31.8304 22.4366C32.8221 23.6308 34.219 24.4764 35.8102 24.7626L35.5712 31.2155C34.7685 31.557 34.2056 32.353 34.2056 33.2804C34.2056 34.5191 35.2098 35.5234 36.4486 35.5234C37.6874 35.5234 38.6916 34.5191 38.6916 33.2804C38.6916 32.4121 38.1982 31.659 37.4764 31.2862L37.7155 24.8326C38.5537 24.7451 39.3461 24.5039 40.0641 24.1374L44.0319 29.776C43.1558 30.6837 42.6168 31.9191 42.6168 33.2804C42.6168 36.0676 44.8763 38.3271 47.6635 38.3271C50.4508 38.3271 52.7103 36.0676 52.7103 33.2804C52.7103 30.4931 50.4508 28.2336 47.6635 28.2336C46.9247 28.2336 46.2228 28.3924 45.5904 28.6778L41.6224 23.0391Z" fill="#FF0012"/>
</svg>
