<svg width="16" height="16" viewBox="0 0 16 16" fill="none" xmlns="http://www.w3.org/2000/svg">
<path fill-rule="evenodd" clip-rule="evenodd" d="M11.9765 9.32548C12.3425 9.69151 12.9359 9.69151 13.3019 9.32548L14.6274 8L14.7681 7.8532C16.4563 6.01451 16.4094 3.15453 14.6274 1.37258C12.7973 -0.457527 9.83011 -0.457528 8 1.37258L6.67452 2.69806L6.60169 2.77981C6.31036 3.1477 6.33464 3.68367 6.67452 4.02355C7.04054 4.38957 7.63398 4.38957 8 4.02355L9.32548 2.69807L9.44568 2.58462C10.5498 1.6014 12.2431 1.63922 13.3019 2.69807C14.4 3.79613 14.4 5.57645 13.3019 6.67452L11.9765 8L11.9036 8.08175C11.6123 8.44964 11.6366 8.98561 11.9765 9.32548ZM1.37258 14.6274C3.20269 16.4575 6.16989 16.4575 8 14.6274L9.32548 13.3019L9.39831 13.2202C9.68964 12.8523 9.66536 12.3163 9.32548 11.9764C8.95946 11.6104 8.36602 11.6104 8 11.9764L6.67452 13.3019L6.55432 13.4154C5.45015 14.3986 3.75692 14.3608 2.69807 13.3019C1.6 12.2039 1.6 10.4235 2.69807 9.32548L4.02355 8L4.09638 7.91825C4.3877 7.55036 4.36343 7.01439 4.02355 6.67451C3.65753 6.30849 3.06409 6.30849 2.69807 6.67451L1.37258 8L1.2319 8.1468C-0.456262 9.98549 -0.409368 12.8455 1.37258 14.6274ZM13.5292 13.3963C13.8953 13.0303 13.8953 12.4368 13.5292 12.0708L4.25085 2.79241C3.88483 2.42638 3.29139 2.42638 2.92537 2.79241C2.55935 3.15843 2.55935 3.75187 2.92537 4.11789L12.2038 13.3963C12.5698 13.7623 13.1632 13.7623 13.5292 13.3963Z" fill="#0021A5"/>
</svg>
