<svg width="16" height="16" viewBox="0 0 16 16" fill="none" xmlns="http://www.w3.org/2000/svg">
<g clip-path="url(#clip0_9276_2840)">
<path fill-rule="evenodd" clip-rule="evenodd" d="M8.44531 5.6C8.44531 4.02034 9.10168 2.54782 10.2372 1.49412L11.4192 0.397181L9.83066 0.11965C9.37606 0.0402297 8.91306 1.48055e-06 8.44531 1.39876e-06C4.02703 6.26248e-07 0.445312 3.58172 0.445311 8C0.44531 12.4183 4.02703 16 8.44531 16C11.1536 16 13.6327 14.6431 15.1066 12.4316L15.9998 11.0914L14.3922 11.1895C14.2771 11.1965 14.1615 11.2 14.0453 11.2C10.9525 11.2 8.44531 8.6928 8.44531 5.6ZM8.44531 14.4001C4.91069 14.4001 2.04531 11.5347 2.04531 8.00007C2.04531 4.59839 4.69919 1.81657 8.04942 1.61211C7.27466 2.77485 6.84531 4.15353 6.84531 5.60007C6.84531 9.15127 9.41627 12.102 12.7984 12.6925C11.6356 13.7723 10.0941 14.4001 8.44531 14.4001Z" fill="#BABBBF"/>
</g>
<defs>
<clipPath id="clip0_9276_2840">
<rect width="16" height="16" fill="white"/>
</clipPath>
</defs>
</svg>
