<svg width="16" height="16" viewBox="0 0 16 16" fill="none" xmlns="http://www.w3.org/2000/svg">
<g clip-path="url(#clip0)">
<path d="M13.7833 3.31103C12.3985 2.19758 10.208 2.00922 10.1149 2.00122C9.96873 1.98885 9.82982 2.07176 9.77018 2.20558C9.76582 2.21431 9.71782 2.32412 9.66473 2.49503C10.5804 2.64922 11.7055 2.96049 12.7236 3.59249C12.8865 3.69358 12.9367 3.90812 12.8356 4.07176C12.7702 4.17794 12.656 4.23612 12.5396 4.23612C12.4771 4.23612 12.4138 4.2194 12.3564 4.18376C10.6065 3.09867 8.42036 3.04412 8 3.04412C7.57964 3.04412 5.39273 3.09867 3.64436 4.18376C3.48073 4.28558 3.26691 4.23467 3.16509 4.07176C3.06327 3.90812 3.11418 3.69431 3.27709 3.59249C4.29527 2.96122 5.41964 2.64922 6.336 2.49503C6.28218 2.3234 6.23418 2.21431 6.23055 2.20558C6.17018 2.07176 6.032 1.9874 5.88509 2.00194C5.79273 2.00922 3.60218 2.19758 2.19855 3.32703C1.46545 4.00412 0 7.96631 0 11.3918C0 11.4521 0.016 11.5118 0.0458182 11.5641C1.05745 13.3409 3.81673 13.8063 4.44582 13.8267C4.44945 13.8267 4.45309 13.8267 4.45673 13.8267C4.568 13.8267 4.67273 13.7736 4.73818 13.6834L5.37455 12.8092C3.65891 12.3656 2.78255 11.6129 2.73164 11.5685C2.58764 11.4412 2.57382 11.2216 2.70109 11.0776C2.82836 10.9336 3.04727 10.9198 3.19127 11.0463C3.21236 11.0652 4.82618 12.4347 8 12.4347C11.1796 12.4347 12.7935 11.0594 12.8095 11.0456C12.9535 10.9205 13.1731 10.9336 13.2996 11.0783C13.4262 11.2223 13.4124 11.4412 13.2691 11.5678C13.2182 11.6129 12.3418 12.3649 10.6262 12.8085L11.2625 13.6827C11.328 13.7729 11.4327 13.8259 11.544 13.8259C11.5476 13.8259 11.5513 13.8259 11.5549 13.8259C12.184 13.8063 14.9433 13.3409 15.9549 11.5634C15.984 11.511 16 11.4521 16 11.3918C16 7.96631 14.5345 4.00412 13.7833 3.31103ZM5.73891 10.0005C5.06691 10.0005 4.52145 9.37722 4.52145 8.60922C4.52145 7.84122 5.06618 7.21794 5.73891 7.21794C6.41164 7.21794 6.95636 7.84122 6.95636 8.60922C6.95636 9.37722 6.41164 10.0005 5.73891 10.0005ZM10.2611 10.0005C9.58909 10.0005 9.04364 9.37722 9.04364 8.60922C9.04364 7.84122 9.58836 7.21794 10.2611 7.21794C10.9331 7.21794 11.4785 7.84122 11.4785 8.60922C11.4785 9.37722 10.9331 10.0005 10.2611 10.0005Z" />
</g>
<defs>
<clipPath id="clip0">
<rect width="16" height="16" fill="white"/>
</clipPath>
</defs>
</svg>
