<svg width="120" height="120" viewBox="0 0 120 120" fill="none" xmlns="http://www.w3.org/2000/svg">
<path d="M16 27.9612L42.9822 0H95.6923C100.111 0 103.692 3.58172 103.692 8V112C103.692 116.418 100.111 120 95.6923 120H24C19.5817 120 16 116.418 16 112V27.9612Z" fill="url(#paint0_linear_111_12912)"/>
<path opacity="0.66" d="M29.8457 77.3846C29.8457 75.4729 31.3955 73.9231 33.3072 73.9231H88.6919C90.6036 73.9231 92.1534 75.4729 92.1534 77.3846C92.1534 79.2964 90.6036 80.8462 88.6919 80.8462H33.3072C31.3955 80.8462 29.8457 79.2964 29.8457 77.3846Z" fill="white"/>
<path opacity="0.66" d="M29.8457 90.3077C29.8457 88.3959 31.3955 86.8462 33.3072 86.8462H88.6919C90.6036 86.8462 92.1534 88.3959 92.1534 90.3077C92.1534 92.2195 90.6036 93.7692 88.6919 93.7692H33.3072C31.3955 93.7692 29.8457 92.2195 29.8457 90.3077Z" fill="white"/>
<path opacity="0.66" d="M29.8457 103.231C29.8457 101.319 31.3955 99.7692 33.3072 99.7692H64.4611C66.3728 99.7692 67.9226 101.319 67.9226 103.231C67.9226 105.143 66.3728 106.692 64.4611 106.692H33.3072C31.3955 106.692 29.8457 105.143 29.8457 103.231Z" fill="white"/>
<path opacity="0.82" d="M16 27.6923L43.6923 0V19.6923C43.6923 24.1106 40.1106 27.6923 35.6923 27.6923H16Z" fill="url(#paint1_linear_111_12912)"/>
<circle opacity="0.66" cx="60.5" cy="43.5" r="19.5" fill="white"/>
<path d="M59.7969 54V34H61.0781V54H59.7969ZM63.1953 40.6016C63.1328 39.9714 62.8646 39.4818 62.3906 39.1328C61.9167 38.7839 61.2734 38.6094 60.4609 38.6094C59.9089 38.6094 59.4427 38.6875 59.0625 38.8438C58.6823 38.9948 58.3906 39.2057 58.1875 39.4766C57.9896 39.7474 57.8906 40.0547 57.8906 40.3984C57.8802 40.6849 57.9401 40.9349 58.0703 41.1484C58.2057 41.362 58.3906 41.5469 58.625 41.7031C58.8594 41.8542 59.1302 41.987 59.4375 42.1016C59.7448 42.2109 60.0729 42.3047 60.4219 42.3828L61.8594 42.7266C62.5573 42.8828 63.1979 43.0911 63.7812 43.3516C64.3646 43.612 64.8698 43.9323 65.2969 44.3125C65.724 44.6927 66.0547 45.1406 66.2891 45.6562C66.5286 46.1719 66.651 46.763 66.6563 47.4297C66.651 48.4089 66.401 49.2578 65.9062 49.9766C65.4167 50.6901 64.7083 51.2448 63.7812 51.6406C62.8594 52.0312 61.7474 52.2266 60.4453 52.2266C59.1536 52.2266 58.0286 52.0286 57.0703 51.6328C56.1172 51.237 55.3724 50.651 54.8359 49.875C54.3047 49.0938 54.026 48.1276 54 46.9766H57.2734C57.3099 47.513 57.4635 47.9609 57.7344 48.3203C58.0104 48.6745 58.3776 48.9427 58.8359 49.125C59.2995 49.3021 59.8229 49.3906 60.4062 49.3906C60.9792 49.3906 61.4766 49.3073 61.8984 49.1406C62.3255 48.974 62.6563 48.7422 62.8906 48.4453C63.125 48.1484 63.2422 47.8073 63.2422 47.4219C63.2422 47.0625 63.1354 46.7604 62.9219 46.5156C62.7135 46.2708 62.4063 46.0625 62 45.8906C61.599 45.7188 61.1068 45.5625 60.5234 45.4219L58.7813 44.9844C57.4323 44.6562 56.3672 44.1432 55.5859 43.4453C54.8047 42.7474 54.4167 41.8073 54.4219 40.625C54.4167 39.6562 54.6745 38.8099 55.1953 38.0859C55.7214 37.362 56.4427 36.7969 57.3594 36.3906C58.276 35.9844 59.3177 35.7813 60.4844 35.7813C61.6719 35.7813 62.7083 35.9844 63.5938 36.3906C64.4844 36.7969 65.1771 37.362 65.6719 38.0859C66.1667 38.8099 66.4219 39.6484 66.4375 40.6016H63.1953Z" fill="#C6C9CD"/>
<defs>
<linearGradient id="paint0_linear_111_12912" x1="59.8467" y1="113.749" x2="59.8467" y2="2.02065" gradientUnits="userSpaceOnUse">
<stop stop-color="#DEE0E2"/>
<stop offset="1" stop-color="#EFEFEF"/>
</linearGradient>
<linearGradient id="paint1_linear_111_12912" x1="29.8462" y1="-5.37093" x2="29.8462" y2="26.6472" gradientUnits="userSpaceOnUse">
<stop stop-color="#DEE0E2"/>
<stop offset="1" stop-color="#B4B9BE"/>
</linearGradient>
</defs>
</svg>
