<svg width="16" height="16" viewBox="0 0 16 16" fill="none" xmlns="http://www.w3.org/2000/svg">
<path fill-rule="evenodd" clip-rule="evenodd" d="M4.5 2.75C4.5 3.7165 3.7165 4.5 2.75 4.5C1.7835 4.5 1 3.7165 1 2.75C1 1.7835 1.7835 1 2.75 1C3.7165 1 4.5 1.7835 4.5 2.75ZM4.5 8C4.5 8.9665 3.7165 9.75 2.75 9.75C1.7835 9.75 1 8.9665 1 8C1 7.0335 1.7835 6.25 2.75 6.25C3.7165 6.25 4.5 7.0335 4.5 8ZM2.75 15C3.7165 15 4.5 14.2165 4.5 13.25C4.5 12.2835 3.7165 11.5 2.75 11.5C1.7835 11.5 1 12.2835 1 13.25C1 14.2165 1.7835 15 2.75 15ZM9.75 2.75C9.75 3.7165 8.9665 4.5 8 4.5C7.0335 4.5 6.25 3.7165 6.25 2.75C6.25 1.7835 7.0335 1 8 1C8.9665 1 9.75 1.7835 9.75 2.75ZM8 9.75C8.9665 9.75 9.75 8.9665 9.75 8C9.75 7.0335 8.9665 6.25 8 6.25C7.0335 6.25 6.25 7.0335 6.25 8C6.25 8.9665 7.0335 9.75 8 9.75ZM9.75 13.25C9.75 14.2165 8.9665 15 8 15C7.0335 15 6.25 14.2165 6.25 13.25C6.25 12.2835 7.0335 11.5 8 11.5C8.9665 11.5 9.75 12.2835 9.75 13.25ZM13.25 4.5C14.2165 4.5 15 3.7165 15 2.75C15 1.7835 14.2165 1 13.25 1C12.2835 1 11.5 1.7835 11.5 2.75C11.5 3.7165 12.2835 4.5 13.25 4.5ZM15 8C15 8.9665 14.2165 9.75 13.25 9.75C12.2835 9.75 11.5 8.9665 11.5 8C11.5 7.0335 12.2835 6.25 13.25 6.25C14.2165 6.25 15 7.0335 15 8ZM13.25 15C14.2165 15 15 14.2165 15 13.25C15 12.2835 14.2165 11.5 13.25 11.5C12.2835 11.5 11.5 12.2835 11.5 13.25C11.5 14.2165 12.2835 15 13.25 15Z" fill="#BABBBF"/>
</svg>
