<svg width="16" height="16" viewBox="0 0 16 16" fill="none" xmlns="http://www.w3.org/2000/svg">
<path fill-rule="evenodd" clip-rule="evenodd" d="M4.0001 4L4.0001 6.3999L3.2001 6.3999C2.34542 6.3999 1.6001 7.021 1.6001 7.86657L1.6001 14.5332C1.6001 15.3788 2.34542 15.9999 3.2001 15.9999L12.8001 15.9999C13.6548 15.9999 14.4001 15.3788 14.4001 14.5332L14.4001 7.86657C14.4001 7.021 13.6548 6.3999 12.8001 6.3999H12.0001V4C12.0001 1.79086 10.2092 0 8.0001 0C5.79096 0 4.0001 1.79086 4.0001 4ZM10.4001 4V6.3999L5.6001 6.3999L5.6001 4C5.6001 2.67452 6.67461 1.6 8.0001 1.6C9.32558 1.6 10.4001 2.67452 10.4001 4ZM3.2 14.3998L3.2 7.9998L12.8 7.9998L12.8 14.3998L3.2 14.3998ZM8.8002 11.2001C8.8002 11.6419 8.44202 12.0001 8.0002 12.0001C7.55837 12.0001 7.20019 11.6419 7.20019 11.2001C7.20019 10.7583 7.55837 10.4001 8.0002 10.4001C8.44202 10.4001 8.8002 10.7583 8.8002 11.2001Z"/>
</svg>
