<svg width="26" height="26" viewBox="0 0 26 26" xmlns="http://www.w3.org/2000/svg">
<path d="M16.2908 3C16.2908 4.65685 14.9476 6 13.2908 6C11.6339 6 10.2908 4.65685 10.2908 3C10.2908 1.34315 11.6339 0 13.2908 0C14.9476 0 16.2908 1.34315 16.2908 3Z"/>
<path d="M23.7285 12.763C22.1527 13.275 20.4602 12.4127 19.9483 10.8369C19.4363 9.26115 20.2986 7.56869 21.8744 7.05669C23.4501 6.54469 25.1426 7.40705 25.6546 8.98281C26.1666 10.5586 25.3042 12.251 23.7285 12.763Z" />
<path d="M16.7417 22.8536C15.7678 21.5131 16.0649 19.637 17.4054 18.6632C18.7458 17.6893 20.6219 17.9864 21.5958 19.3269C22.5696 20.6673 22.2725 22.5434 20.9321 23.5173C19.5917 24.4911 17.7155 24.194 16.7417 22.8536Z" />
<path d="M4.70727 7.05665C6.28303 7.56865 7.14539 9.26111 6.63339 10.8369C6.12139 12.4126 4.42893 13.275 2.85317 12.763C1.27741 12.251 0.415055 10.5585 0.927051 8.98277C1.43905 7.40701 3.13151 6.54465 4.70727 7.05665Z" />
<path d="M4.98591 19.3268C5.95979 17.9863 7.8359 17.6892 9.17632 18.6631C10.5167 19.6369 10.8139 21.513 9.84002 22.8535C8.86614 24.1939 6.99003 24.491 5.64961 23.5172C4.30919 22.5433 4.01204 20.6672 4.98591 19.3268Z" />
<path fill-rule="evenodd" clip-rule="evenodd" d="M17.5845 3.96609C17.4649 4.5001 17.2482 4.99744 16.9539 5.43861C17.8536 5.87529 18.6637 6.46781 19.3489 7.1811C19.6773 6.76485 20.0831 6.40497 20.5537 6.12602C19.7103 5.23525 18.7049 4.49953 17.5845 3.96609ZM23.2082 14.2919C22.6634 14.343 22.1236 14.2905 21.6132 14.1468C21.4757 15.1537 21.1598 16.1038 20.6984 16.9642C21.1958 17.1481 21.6634 17.423 22.0741 17.7846C22.6539 16.7224 23.0467 15.5434 23.2082 14.2919ZM15.127 22.8318C14.91 22.3294 14.7931 21.7997 14.772 21.2698C14.2912 21.3554 13.7962 21.4 13.2908 21.4C12.7854 21.4 12.2904 21.3553 11.8096 21.2698C11.7884 21.7997 11.6715 22.3294 11.4545 22.8317C12.0498 22.9422 12.6636 23 13.2908 23C13.9181 23 14.5318 22.9422 15.127 22.8318ZM4.50751 17.7844C4.91818 17.4228 5.38581 17.1479 5.88317 16.9641C5.4218 16.1037 5.10593 15.1537 4.96848 14.1469C4.4581 14.2905 3.91827 14.3431 3.37354 14.292C3.53496 15.5434 3.92771 16.7223 4.50751 17.7844ZM6.02783 6.12618C6.49843 6.40515 6.90417 6.76503 7.23254 7.18129C7.91788 6.4679 8.72802 5.8753 9.62784 5.43859C9.33356 4.99742 9.11686 4.50008 8.99724 3.96606C7.87678 4.49954 6.87124 5.23532 6.02783 6.12618Z" />
</svg>
