<svg width="16" height="16" viewBox="0 0 16 16" fill="none" xmlns="http://www.w3.org/2000/svg">
<g clip-path="url(#clip0)">
<path d="M12.9051 1C12.693 1.00025 12.4843 1.05271 12.2974 1.15274C12.1104 1.25278 11.951 1.3973 11.8331 1.57356L9.1222 1.08576L8.67879 1.00555L8.53048 1.46662L7.25876 5.421C5.54568 5.55454 4.03067 6.14788 2.95277 7.02213C2.79541 6.83501 2.59908 6.68452 2.3775 6.58118C2.15592 6.47784 1.91444 6.42415 1.66995 6.42385C1.25753 6.42603 0.860341 6.57994 0.554143 6.85624C0.247944 7.13253 0.0541631 7.51187 0.00976141 7.9219C-0.0346403 8.33193 0.0734443 8.74396 0.313399 9.07939C0.553355 9.41483 0.908388 9.6502 1.31078 9.74061C1.29317 9.88174 1.28253 10.0245 1.28253 10.1689C1.28253 12.8085 4.2889 14.9471 7.99778 14.9471C11.7067 14.9471 14.713 12.8085 14.713 10.1689C14.713 10.0248 14.7023 9.88243 14.6848 9.74162C15.0882 9.65213 15.4444 9.41702 15.6853 9.08128C15.9261 8.74555 16.0347 8.33277 15.9902 7.92197C15.9458 7.51117 15.7514 7.1312 15.4442 6.85479C15.1371 6.57838 14.7388 6.42494 14.3256 6.42385C14.0811 6.42415 13.8396 6.47784 13.6181 6.58118C13.3965 6.68452 13.2002 6.83501 13.0428 7.02213C11.9839 6.16327 10.5022 5.57757 8.82609 5.43059L9.44202 2.19252L11.649 2.59003C11.7162 2.87267 11.8767 3.12441 12.1046 3.30455C12.3325 3.48469 12.6146 3.58272 12.9051 3.58279C13.2476 3.58279 13.576 3.44673 13.8182 3.20455C14.0604 2.96236 14.1965 2.63389 14.1965 2.29139C14.1965 1.94889 14.0604 1.62042 13.8182 1.37824C13.576 1.13606 13.2476 1 12.9051 1ZM5.19556 7.97353C5.88774 7.97353 6.44811 8.55207 6.44811 9.26492C6.44811 9.97777 5.88774 10.5563 5.19556 10.5563C4.50595 10.5718 3.94301 9.97777 3.94301 9.26492C3.94301 8.55207 4.50595 7.97353 5.19556 7.97353ZM10.8 7.97353C11.4896 7.97353 12.0526 8.55207 12.0526 9.26492C12.0526 9.97777 11.4896 10.5718 10.8 10.5563C10.1078 10.5563 9.54745 9.97777 9.54745 9.26492C9.54745 8.55207 10.1078 7.97353 10.8 7.97353ZM5.46645 11.6928C5.4742 11.698 6.4042 12.4677 7.99778 12.4677C9.59136 12.4677 10.6091 11.8115 10.6169 11.8063L11.1486 12.5191C11.0995 12.5553 9.95553 13.3974 7.99778 13.3974C6.04003 13.3974 4.89605 12.5553 4.84698 12.5191L5.46645 11.6928Z" />
</g>
<defs>
<clipPath id="clip0">
<rect width="16" height="16" fill="white"/>
</clipPath>
</defs>
</svg>
