<svg width="16" height="16" viewBox="0 0 16 16" fill="none" xmlns="http://www.w3.org/2000/svg">
<g clip-path="url(#clip0_11475_5045)">
<path d="M7.6903 0C8.29254 0.00694115 8.89242 0.076523 9.48026 0.207622C9.73687 0.26485 9.92878 0.478779 9.95791 0.740074L10.0976 1.99287C10.1608 2.5681 10.6464 3.00377 11.2254 3.00438C11.3811 3.00463 11.535 2.97222 11.6788 2.90859L12.8281 2.40375C13.0671 2.29875 13.3463 2.35599 13.5248 2.54656C14.3553 3.43356 14.9738 4.49736 15.3338 5.65793C15.4114 5.90818 15.3221 6.18015 15.1112 6.33561L14.0925 7.08645C13.802 7.29995 13.6303 7.639 13.6303 7.99958C13.6303 8.36015 13.802 8.6992 14.0932 8.91317L15.1127 9.66427C15.3237 9.81971 15.4131 10.0917 15.3355 10.342C14.9756 11.5024 14.3574 12.5661 13.5274 13.4532C13.3491 13.6438 13.0701 13.7012 12.8311 13.5965L11.6772 13.0909C11.3471 12.9464 10.9679 12.9676 10.6559 13.1479C10.344 13.3282 10.1363 13.6461 10.0967 14.0043L9.95796 15.257C9.92935 15.5153 9.74157 15.7278 9.48874 15.7879C8.30027 16.0707 7.06204 16.0707 5.87356 15.7879C5.62074 15.7278 5.43296 15.5153 5.40435 15.257L5.26583 14.0062C5.22514 13.6487 5.0172 13.3317 4.70547 13.152C4.39374 12.9723 4.01524 12.9513 3.68621 13.0949L2.53205 13.6006C2.29299 13.7053 2.01386 13.6479 1.8356 13.4572C1.00511 12.569 0.38691 11.5041 0.0275302 10.3424C-0.0498761 10.0922 0.0395596 9.82044 0.250419 9.66509L1.27059 8.91352C1.56117 8.70002 1.73278 8.36097 1.73278 8.0004C1.73278 7.63982 1.56117 7.30077 1.27021 7.087L0.250678 6.33671C0.0395057 6.18131 -0.0500122 5.90917 0.0276669 5.65875C0.387669 4.49819 1.00619 3.43438 1.8367 2.54738C2.01514 2.35681 2.2944 2.29957 2.53342 2.40457L3.68245 2.90932C4.01307 3.05441 4.39316 3.0325 4.70657 2.8494C5.01863 2.66839 5.22638 2.35014 5.26649 1.99192L5.40604 0.740074C5.43518 0.478647 5.62727 0.264649 5.88404 0.207543C6.47257 0.0766523 7.07309 0.00710051 7.6903 0ZM7.68006 5.53844C6.32059 5.53844 5.21851 6.64051 5.21851 7.99998C5.21851 9.35945 6.32059 10.4615 7.68006 10.4615C9.03953 10.4615 10.1416 9.35945 10.1416 7.99998C10.1416 6.64051 9.03953 5.53844 7.68006 5.53844Z" fill="#0021A5"/>
</g>
<defs>
<clipPath id="clip0_11475_5045">
<rect width="16" height="16" fill="white"/>
</clipPath>
</defs>
</svg>
