<svg width="16" height="16" viewBox="0 0 16 16" fill="none" xmlns="http://www.w3.org/2000/svg">
<g clip-path="url(#clip0)">
<path fill-rule="evenodd" clip-rule="evenodd" d="M2.99207 3.63636H5.09091V5.09091H0.727273V0.720881H2.18182V2.36833C3.80878 0.662224 5.663 0 8 0C12.4183 0 16 3.58172 16 8C16 12.4183 12.4183 16 8 16C3.58172 16 0 12.4183 0 8H1.45455C1.45455 11.615 4.38505 14.5455 8 14.5455C11.615 14.5455 14.5455 11.615 14.5455 8C14.5455 4.38505 11.615 1.45455 8 1.45455C5.93397 1.45455 4.39611 2.03009 2.99207 3.63636Z"/>
<path fill-rule="evenodd" clip-rule="evenodd" d="M8.45455 7.63636H11.3636V9.09091H7V4H8.45455V7.63636Z"/>
</g>
<defs>
<clipPath id="clip0">
<rect width="16" height="16" fill="white"/>
</clipPath>
</defs>
</svg>
