<svg width="48" height="48" viewBox="0 0 48 48" fill="none" xmlns="http://www.w3.org/2000/svg">
<path fill-rule="evenodd" clip-rule="evenodd" d="M3.13043 5C1.40154 5 0 6.40154 0 8.13043C0 9.85933 1.40154 11.2609 3.13043 11.2609H11.4783C13.2072 11.2609 14.6087 9.85933 14.6087 8.13043C14.6087 6.40154 13.2072 5 11.4783 5H3.13043ZM0 19.6087C0 16.7272 2.33591 14.3913 5.21739 14.3913H9.39131C12.2728 14.3913 14.6087 16.7272 14.6087 19.6087C14.6087 22.4902 12.2728 24.8261 9.3913 24.8261H5.21739C2.3359 24.8261 0 22.4902 0 19.6087ZM0 35.2608C0 31.2267 3.27027 27.9565 7.30435 27.9565C11.3384 27.9565 14.6087 31.2267 14.6087 35.2608C14.6087 39.2949 11.3384 42.5652 7.30435 42.5652C3.27027 42.5652 0 39.2949 0 35.2608ZM16.6954 8.13043C16.6954 6.40154 18.0969 5 19.8258 5H28.1737C29.9026 5 31.3041 6.40154 31.3041 8.13043C31.3041 9.85933 29.9025 11.2609 28.1737 11.2609H19.8258C18.0969 11.2609 16.6954 9.85933 16.6954 8.13043ZM21.9128 14.3913C19.0313 14.3913 16.6954 16.7272 16.6954 19.6087C16.6954 22.4902 19.0313 24.8261 21.9128 24.8261H26.0867C28.9682 24.8261 31.3041 22.4902 31.3041 19.6087C31.3041 16.7272 28.9682 14.3913 26.0867 14.3913H21.9128ZM16.6954 35.2608C16.6954 31.2267 19.9657 27.9565 23.9997 27.9565C28.0338 27.9565 31.3041 31.2267 31.3041 35.2608C31.3041 39.2949 28.0338 42.5652 23.9997 42.5652C19.9657 42.5652 16.6954 39.2949 16.6954 35.2608ZM36.522 5C34.7931 5 33.3916 6.40154 33.3916 8.13043C33.3916 9.85933 34.7931 11.2609 36.522 11.2609H44.8698C46.5987 11.2609 48.0003 9.85933 48.0003 8.13043C48.0003 6.40154 46.5987 5 44.8698 5H36.522ZM33.3916 19.6087C33.3916 16.7272 35.7275 14.3913 38.609 14.3913H42.7829C45.6644 14.3913 48.0003 16.7272 48.0003 19.6087C48.0003 22.4902 45.6643 24.8261 42.7829 24.8261H38.6089C35.7275 24.8261 33.3916 22.4902 33.3916 19.6087ZM40.6959 27.9565C36.6618 27.9565 33.3916 31.2267 33.3916 35.2608C33.3916 39.2949 36.6618 42.5652 40.6959 42.5652C44.73 42.5652 48.0003 39.2949 48.0003 35.2608C48.0003 31.2267 44.73 27.9565 40.6959 27.9565Z" fill="#FF0012"/>
</svg>
