<svg width="84" height="95" viewBox="0 0 84 95" fill="none" xmlns="http://www.w3.org/2000/svg">
<path d="M0.501953 71.2467C0.501953 71.6041 0.692674 71.9343 1.00223 72.1129L38.4053 93.6915C39.072 94.0761 39.9051 93.5949 39.9051 92.8253V74.8211C39.9051 74.4637 39.7143 74.1335 39.4048 73.9549L2.00167 52.3763C1.33501 51.9917 0.501953 52.4729 0.501953 53.2425V71.2467Z" fill="black"/>
<path d="M61.7012 83.8221C61.7012 84.1795 61.5104 84.5097 61.2009 84.6883L45.5952 93.6914C44.9286 94.0761 44.0955 93.5949 44.0955 92.8253V74.8211C44.0955 74.4637 44.2863 74.1335 44.5958 73.9549L60.2015 64.9518C60.8681 64.5671 61.7012 65.0483 61.7012 65.8179V83.8221Z" fill="black"/>
<path d="M0.501953 46.0957C0.501953 46.4531 0.692675 46.7833 1.00224 46.9619L16.6079 55.965C17.2745 56.3496 18.1076 55.8685 18.1076 55.0988V37.0947C18.1076 36.7373 17.9169 36.4071 17.6073 36.2285L2.00167 27.2253C1.335 26.8407 0.501953 27.3219 0.501953 28.0915V46.0957Z" fill="black"/>
<path d="M66.3929 36.2285C66.0833 36.4071 65.8926 36.7373 65.8926 37.0947V80.2497C65.8926 81.0194 66.7256 81.5005 67.3923 81.1159L82.9979 72.1128C83.3075 71.9342 83.4982 71.604 83.4982 71.2466V28.0915C83.4982 27.3218 82.6652 26.8407 81.9985 27.2253L66.3929 36.2285Z" fill="black"/>
<path d="M44.0957 46.0957C44.0957 46.4531 44.2864 46.7833 44.596 46.9619L60.2016 55.965C60.8683 56.3496 61.7013 55.8685 61.7013 55.0988V37.0947C61.7013 36.7373 61.5106 36.4071 61.2011 36.2285L45.5954 27.2253C44.9288 26.8407 44.0957 27.3219 44.0957 28.0915V46.0957Z" fill="black"/>
<path d="M39.9043 46.0957C39.9043 46.4531 39.7136 46.7833 39.404 46.9619L23.7984 55.965C23.1317 56.3496 22.2987 55.8685 22.2987 55.0988V37.0947C22.2987 36.7373 22.4894 36.4071 22.7989 36.2285L38.4046 27.2253C39.0712 26.8407 39.9043 27.3219 39.9043 28.0915V46.0957Z" fill="black"/>
<path d="M25.8959 59.5926C25.2289 59.9775 25.2289 60.9402 25.8959 61.325L41.4996 70.3267C41.8089 70.5051 42.1898 70.5051 42.4991 70.3267L58.102 61.325C58.7691 60.9402 58.7691 59.9775 58.1021 59.5927L42.4991 50.5902C42.1898 50.4118 41.8089 50.4118 41.4996 50.5902L25.8959 59.5926Z" fill="black"/>
<path d="M4.09906 21.8662C3.43202 22.2511 3.43204 23.2138 4.09909 23.5986L19.7028 32.6003C20.012 32.7787 20.3929 32.7787 20.7022 32.6003L58.1026 11.0231C58.7696 10.6383 58.7697 9.67562 58.1026 9.29077L42.4997 0.288333C42.1904 0.109895 41.8095 0.10989 41.5002 0.288319L4.09906 21.8662Z" fill="black"/>
<path d="M47.6928 21.8662C47.0258 22.251 47.0258 23.2138 47.6928 23.5986L63.2965 32.6003C63.6058 32.7787 63.9867 32.7787 64.2959 32.6003L79.8989 23.5986C80.5659 23.2137 80.5659 22.2511 79.8989 21.8662L64.296 12.8638C63.9867 12.6853 63.6058 12.6853 63.2965 12.8638L47.6928 21.8662Z" fill="black"/>
</svg>
