<svg width="331" height="90" viewBox="0 0 331 90" fill="none" xmlns="http://www.w3.org/2000/svg">
<path fill-rule="evenodd" clip-rule="evenodd" d="M63.6993 56.2125L78.1155 21.1692L67.9894 89.9C67.0015 89.9663 66.0047 90 65 90C44.2152 90 26.7964 75.5883 22.1913 56.2125H61.6895H63.6993ZM21.199 50.2125C21.0674 48.8261 21 47.4209 21 46C21 21.6995 40.6995 2 65 2C69.7569 2 74.3375 2.75487 78.6285 4.15134L59.6797 50.2125H21.199ZM86.2035 7.43667L76.0447 76.3891L90.4582 50.2125H108.801C108.933 48.8261 109 47.4209 109 46C109 29.3871 99.7931 14.9247 86.2035 7.43667ZM107.809 56.2125H94.0039L76.1901 88.5644C91.8225 84.4659 104.06 71.9836 107.809 56.2125Z" fill="#FF0012"/>
<path fill-rule="evenodd" clip-rule="evenodd" d="M160.367 15.4866H157.455C157.238 13.4412 156.18 12.4305 154.11 12.4305C152.426 12.4305 150.934 13.1524 150.934 14.9091C150.934 16.4492 152.546 17.0989 154.784 17.7005L155.075 17.7796C157.9 18.5459 160.824 19.339 160.824 22.8984C160.824 26.4118 157.479 28 154.327 28C150.524 28 147.589 26.0989 147.396 22.008H150.38C150.452 24.3182 152.089 25.5695 154.327 25.5695C156.252 25.5695 157.936 24.7032 157.936 22.9225C157.936 21.1899 156.296 20.749 154.321 20.2183L154.321 20.2182L154.321 20.2182L154.321 20.2182L154.321 20.2181C154.156 20.1739 153.99 20.1291 153.821 20.0829C150.982 19.3128 148.07 18.3021 148.022 14.9332C147.974 11.6364 151.054 10 154.158 10C157.647 10 160.15 11.7326 160.367 15.4866ZM142.789 22.3209H145.676C144.882 25.5214 142.043 27.9037 137.735 27.9037C132.369 27.9037 129 24.1016 129 19C129 13.9465 132.393 10.0963 137.759 10.0963C142.091 10.0963 144.618 12.3342 145.676 15.6791H142.789C141.874 13.6096 140.382 12.5508 137.759 12.5508C134.102 12.5508 131.912 15.4144 131.912 19C131.912 22.5856 134.102 25.4492 137.759 25.4492C140.575 25.4492 142.091 24.1979 142.789 22.3209ZM169.409 10.4091H163.272V27.5909H166.184V21.1417H169.409C172.946 21.1417 175.497 18.8075 175.497 15.7032C175.497 12.6711 173.139 10.4091 169.409 10.4091ZM169.168 18.7112H166.184V12.8396H169.168C171.334 12.8396 172.585 13.8021 172.585 15.7273C172.585 17.6524 171.334 18.7112 169.168 18.7112ZM180.372 27.5909H177.461V10.4091H184.006C187.929 10.4091 190.07 12.4786 190.07 15.2941C190.07 17.508 188.651 19.3128 186.629 19.8182C188.097 20.2995 188.651 21.5749 189.252 23.5722C189.315 23.7655 189.373 23.9511 189.43 24.1301L189.43 24.1305C189.832 25.3997 190.129 26.338 190.889 27.3503V27.5909H187.76C187.197 26.8569 186.912 25.8566 186.622 24.839C186.504 24.4219 186.384 24.002 186.244 23.5963C185.691 22.008 185.017 20.8529 182.923 20.8529H180.372V27.5909ZM180.372 12.7914V18.4465H183.862C186.028 18.4465 187.183 17.2914 187.183 15.5107C187.183 13.9947 186.22 12.7914 183.766 12.7914H180.372ZM130 82.1346V38H137.17V82.1346H130ZM151.076 38.1236V45.1703H143.596V38.1236H151.076ZM150.89 82.1346H143.782V50.1772H150.89V82.1346ZM154.669 50.1772C156.616 55.4932 158.547 60.8246 160.479 66.156C162.411 71.4874 164.342 76.8187 166.289 82.1346H174.263L185.884 50.1772H178.343C177.535 52.6916 176.712 55.2224 175.892 57.7387L175.892 57.7389C173.952 63.6975 172.039 69.5753 170.431 74.9643H170.307C168.876 70.3649 167.408 65.8595 165.933 61.3341L165.933 61.3336C164.732 57.6486 163.526 53.9502 162.333 50.1772H154.669ZM202.778 49.3118C213.657 49.3118 218.108 57.7184 218.169 66.7431V68.103H193.568C194.062 73.9135 197.771 77.2514 202.778 77.2514C206.425 77.2514 209.454 75.8915 210.628 72.6772H217.737C215.82 79.1676 210.319 83 202.778 83C193.197 83 186.645 76.1387 186.645 66.0632C186.645 56.3585 193.444 49.3118 202.778 49.3118ZM202.716 54.875C197.771 54.875 194.433 58.0275 193.691 62.9107H211.061C210.566 57.9038 207.661 54.875 202.716 54.875Z" fill="#0021A5"/>
</svg>
