<svg width="285" height="96" viewBox="0 0 285 96" fill="none" xmlns="http://www.w3.org/2000/svg">
<path d="M231.021 49.5469C236.313 49.5469 240.157 52.5081 241.669 56.1621H241.731V50.4287H249.229V79.8496C249.229 90.4965 241.984 95.2216 233.542 95.2217C224.785 95.2217 218.737 90.6858 217.918 84.0078H225.1C225.793 87.9767 228.88 89.4892 233.479 89.4893C238.582 89.4893 241.731 86.7799 241.731 80.6689V76.3223H241.669C240.157 79.9762 236.313 82.748 231.021 82.748C222.076 82.7479 216.217 76.1956 216.217 66.1787C216.217 56.162 222.076 49.547 231.021 49.5469ZM132.949 83H125.389V77.0781H125.326C124.003 80.9841 120.412 83.9453 114.805 83.9453C106.111 83.9451 100 76.7629 100 66.6201C100 56.5402 106.111 49.547 114.805 49.5469C120.348 49.5469 124.191 52.8228 125.389 56.3506V38.0176H132.949V83ZM153.834 49.5469C164.922 49.5471 169.458 58.1156 169.521 67.3135V68.6992H144.446C144.95 74.6211 148.731 78.0234 153.834 78.0234C157.551 78.0233 160.638 76.6371 161.835 73.3613H169.08C167.127 79.9761 161.52 83.8817 153.834 83.8818C144.069 83.8818 137.391 76.8891 137.391 66.6201C137.391 56.7291 144.321 49.5469 153.834 49.5469ZM185.733 49.5469C192.789 49.5469 198.082 53.1383 198.838 60.1943H191.907C191.403 56.6033 188.568 55.0908 185.607 55.0908C182.772 55.0908 180.315 56.7921 180.315 59.123C180.315 62.273 184.095 63.1551 189.576 64.415C195.309 65.675 199.468 68.3843 199.468 73.6133C199.468 80.102 193.231 83.8817 186.049 83.8818C179.371 83.8818 173.07 80.8579 172.314 73.0459H179.56C180.19 76.6369 182.395 78.2754 186.175 78.2754C189.262 78.2753 192.159 77.0149 192.159 73.9912C192.159 70.7783 188.947 70.2736 183.718 69.0137C178.489 67.8167 173.26 65.3601 173.26 59.4385C173.26 53.5165 179.055 49.5469 185.733 49.5469ZM211.338 83H204.094V50.4287H211.338V83ZM272.75 49.5469C281.192 49.547 284.468 55.1544 284.468 62.6514V83H277.223V64.1631C277.223 58.8711 275.522 55.5323 270.923 55.5322C266.45 55.5322 263.11 58.4931 263.11 66.4941V83H255.803V50.4287H263.048V56.666C264.182 52.823 267.332 49.5469 272.75 49.5469ZM116.632 55.5322C110.899 55.5323 107.308 60.4462 107.308 66.6201C107.308 72.92 110.773 77.8974 116.632 77.8975C122.995 77.8975 125.893 73.0461 125.893 66.6201V66.2422C125.767 60.0682 122.239 55.5322 116.632 55.5322ZM232.975 55.5322C227.179 55.5323 223.84 60.1939 223.84 66.1787C223.84 72.1636 227.116 76.7626 232.975 76.7627C239.401 76.7627 242.109 71.9751 242.109 66.3682C242.109 60.3832 238.771 55.5322 232.975 55.5322ZM153.771 55.2168C148.731 55.2168 145.328 58.4303 144.572 63.4072H162.275C161.771 58.3042 158.811 55.2168 153.771 55.2168ZM211.527 45.3262H203.904V38.1436H211.527V45.3262ZM125.158 11C128.647 11 131.151 12.7325 131.367 16.4863H128.455C128.238 14.4412 127.18 13.4308 125.11 13.4307C123.426 13.4307 121.934 14.1525 121.934 15.9092C121.934 17.4492 123.546 18.0986 125.784 18.7002C128.696 19.4943 131.824 20.2167 131.824 23.8984C131.824 27.4118 128.479 29 125.326 29C121.524 28.9999 118.589 27.0986 118.396 23.0078H121.38C121.452 25.3178 123.088 26.5692 125.326 26.5693C127.251 26.5693 128.936 25.7033 128.937 23.9229C128.937 22.0459 127.011 21.6846 124.821 21.083C121.982 20.313 119.07 19.3022 119.021 15.9336C118.973 12.6368 122.054 11 125.158 11ZM108.76 11.0967C113.091 11.0968 115.618 13.3341 116.677 16.6787H113.789C112.875 14.6095 111.382 13.5509 108.76 13.5508C105.102 13.5508 102.912 16.4144 102.912 20C102.912 23.5856 105.102 26.4492 108.76 26.4492C111.575 26.4491 113.091 25.198 113.789 23.3213H116.677C115.883 26.5216 113.043 28.9033 108.735 28.9033C103.369 28.9033 100 25.1016 100 20C100 14.9465 103.393 11.0967 108.76 11.0967ZM140.408 11.4092C144.138 11.4092 146.497 13.6711 146.497 16.7031C146.497 19.8074 143.946 22.1416 140.408 22.1416H137.184V28.5908H134.272V11.4092H140.408ZM155.006 11.4092C158.928 11.4092 161.07 13.4785 161.07 16.2939C161.07 18.5078 159.65 20.313 157.629 20.8184C159.097 21.2996 159.65 22.5749 160.252 24.5723C160.757 26.1364 161.022 27.1955 161.889 28.3506V28.5908H158.76C157.966 27.5562 157.725 25.9922 157.244 24.5967C156.691 23.0084 156.016 21.8525 153.923 21.8525H151.372V28.5908H148.461V11.4092H155.006ZM137.184 19.7109H140.168C142.334 19.7109 143.585 18.6525 143.585 16.7275C143.585 14.8024 142.334 13.8398 140.168 13.8398H137.184V19.7109ZM151.372 19.4463H154.861C157.027 19.4463 158.183 18.2915 158.183 16.5107C158.183 14.9947 157.22 13.791 154.766 13.791H151.372V19.4463Z" fill="#0021A5"/>
<path d="M0.501953 71.2466C0.501953 71.604 0.692674 71.9342 1.00223 72.1128L38.4053 93.6914C39.072 94.076 39.9051 93.5949 39.9051 92.8252V74.821C39.9051 74.4637 39.7143 74.1335 39.4048 73.9549L2.00167 52.3763C1.33501 51.9917 0.501953 52.4728 0.501953 53.2425V71.2466Z" fill="#FF0012"/>
<path d="M61.7012 83.8221C61.7012 84.1795 61.5104 84.5097 61.2009 84.6883L45.5952 93.6914C44.9286 94.0761 44.0955 93.5949 44.0955 92.8253V74.8211C44.0955 74.4637 44.2863 74.1335 44.5958 73.9549L60.2015 64.9518C60.8681 64.5671 61.7012 65.0483 61.7012 65.8179V83.8221Z" fill="#FF0012"/>
<path d="M0.501953 46.0957C0.501953 46.4531 0.692675 46.7833 1.00224 46.9619L16.6079 55.9651C17.2745 56.3497 18.1076 55.8685 18.1076 55.0989V37.0947C18.1076 36.7373 17.9169 36.4071 17.6073 36.2285L2.00167 27.2254C1.335 26.8408 0.501953 27.3219 0.501953 28.0916V46.0957Z" fill="#FF0012"/>
<path d="M66.3929 36.2285C66.0833 36.4071 65.8926 36.7373 65.8926 37.0947V80.2498C65.8926 81.0195 66.7256 81.5006 67.3923 81.116L82.9979 72.1128C83.3075 71.9342 83.4982 71.604 83.4982 71.2467V28.0916C83.4982 27.3219 82.6652 26.8408 81.9985 27.2254L66.3929 36.2285Z" fill="#FF0012"/>
<path d="M44.0957 46.0957C44.0957 46.4531 44.2864 46.7833 44.596 46.9619L60.2016 55.9651C60.8683 56.3497 61.7013 55.8685 61.7013 55.0989V37.0947C61.7013 36.7373 61.5106 36.4071 61.2011 36.2285L45.5954 27.2254C44.9288 26.8408 44.0957 27.3219 44.0957 28.0916V46.0957Z" fill="#FF0012"/>
<path d="M39.9043 46.0957C39.9043 46.4531 39.7136 46.7833 39.404 46.9619L23.7984 55.9651C23.1317 56.3497 22.2987 55.8685 22.2987 55.0989V37.0947C22.2987 36.7373 22.4894 36.4071 22.7989 36.2285L38.4046 27.2254C39.0712 26.8408 39.9043 27.3219 39.9043 28.0916V46.0957Z" fill="#FF0012"/>
<path d="M25.8959 59.5926C25.2289 59.9774 25.2289 60.9401 25.8959 61.325L41.4996 70.3267C41.8089 70.5051 42.1898 70.5051 42.4991 70.3267L58.102 61.3249C58.7691 60.9401 58.7691 59.9774 58.1021 59.5926L42.4991 50.5902C42.1898 50.4117 41.8089 50.4117 41.4996 50.5901L25.8959 59.5926Z" fill="#FF0012"/>
<path d="M4.09906 21.8662C3.43202 22.2511 3.43204 23.2138 4.09909 23.5986L19.7028 32.6003C20.012 32.7787 20.3929 32.7787 20.7022 32.6003L58.1026 11.0231C58.7696 10.6383 58.7697 9.67562 58.1026 9.29077L42.4997 0.288333C42.1904 0.109895 41.8095 0.10989 41.5002 0.288319L4.09906 21.8662Z" fill="#FF0012"/>
<path d="M47.6928 21.8662C47.0258 22.251 47.0258 23.2138 47.6928 23.5986L63.2965 32.6003C63.6058 32.7787 63.9867 32.7787 64.2959 32.6003L79.8989 23.5986C80.5659 23.2137 80.5659 22.2511 79.8989 21.8662L64.296 12.8638C63.9867 12.6853 63.6058 12.6853 63.2965 12.8638L47.6928 21.8662Z" fill="#FF0012"/>
</svg>
